G75*
%MOIN*%
%OFA0B0*%
%FSLAX25Y25*%
%IPPOS*%
%LPD*%
%AMOC8*
5,1,8,0,0,1.08239X$1,22.5*
%
%ADD10C,0.00000*%
%ADD11OC8,0.05600*%
%ADD12C,0.05600*%
%ADD13C,0.05550*%
%ADD14C,0.11620*%
%ADD15C,0.05600*%
%ADD16C,0.06337*%
%ADD17C,0.07800*%
D10*
X0001339Y0001300D02*
X0001339Y0198150D01*
X0198190Y0198150D01*
X0198190Y0001300D01*
X0001339Y0001300D01*
D11*
X0021595Y0006969D03*
X0021595Y0016969D03*
X0039509Y0016753D03*
X0039509Y0006753D03*
X0059607Y0030394D03*
X0069666Y0042442D03*
X0069666Y0052442D03*
X0055276Y0061359D03*
X0041950Y0061398D03*
X0029513Y0061379D03*
X0029513Y0101379D03*
X0041950Y0101398D03*
X0055276Y0101359D03*
X0129863Y0162422D03*
X0129863Y0172422D03*
X0091930Y0192068D03*
X0051930Y0192068D03*
X0147276Y0112143D03*
X0113426Y0020867D03*
X0113426Y0010867D03*
X0101418Y0016398D03*
X0093918Y0011398D03*
X0093918Y0021398D03*
X0077082Y0021365D03*
X0077082Y0011365D03*
D12*
X0059607Y0010394D03*
X0147276Y0092143D03*
D13*
X0162501Y0028784D03*
X0167225Y0025635D03*
X0162501Y0022485D03*
X0167225Y0019335D03*
X0162501Y0016186D03*
X0147225Y0011182D03*
X0139351Y0011182D03*
X0131477Y0011182D03*
D14*
X0182580Y0008115D03*
X0182580Y0036855D03*
D15*
X0116046Y0042363D02*
X0110846Y0042363D01*
X0110846Y0052363D02*
X0116046Y0052363D01*
X0116046Y0062363D02*
X0110846Y0062363D01*
X0110846Y0072363D02*
X0116046Y0072363D01*
X0116046Y0082363D02*
X0110846Y0082363D01*
X0110846Y0092363D02*
X0116046Y0092363D01*
X0116046Y0102363D02*
X0110846Y0102363D01*
X0110846Y0112363D02*
X0116046Y0112363D01*
X0116046Y0122363D02*
X0110846Y0122363D01*
X0110846Y0132363D02*
X0116046Y0132363D01*
X0116046Y0142363D02*
X0110846Y0142363D01*
X0110846Y0152363D02*
X0116046Y0152363D01*
X0116046Y0162363D02*
X0110846Y0162363D01*
X0110846Y0172363D02*
X0116046Y0172363D01*
X0086046Y0172363D02*
X0080846Y0172363D01*
X0080846Y0162363D02*
X0086046Y0162363D01*
X0086046Y0152363D02*
X0080846Y0152363D01*
X0080846Y0142363D02*
X0086046Y0142363D01*
X0086046Y0132363D02*
X0080846Y0132363D01*
X0080846Y0122363D02*
X0086046Y0122363D01*
X0086046Y0112363D02*
X0080846Y0112363D01*
X0080846Y0102363D02*
X0086046Y0102363D01*
X0086046Y0092363D02*
X0080846Y0092363D01*
X0080846Y0082363D02*
X0086046Y0082363D01*
X0086046Y0072363D02*
X0080846Y0072363D01*
X0080846Y0062363D02*
X0086046Y0062363D01*
X0086046Y0052363D02*
X0080846Y0052363D01*
X0080846Y0042363D02*
X0086046Y0042363D01*
D16*
X0123603Y0011182D03*
X0155099Y0011182D03*
D17*
X0193839Y0066300D03*
X0193839Y0076300D03*
X0193839Y0086300D03*
X0193839Y0096300D03*
X0193839Y0106300D03*
X0193839Y0116300D03*
X0193839Y0126300D03*
X0193839Y0136300D03*
X0069627Y0102360D03*
X0069627Y0092360D03*
X0069627Y0082360D03*
X0027950Y0049406D03*
X0007950Y0049406D03*
X0006339Y0066300D03*
X0006339Y0076300D03*
X0006339Y0086300D03*
X0006339Y0096300D03*
X0006339Y0106300D03*
X0006339Y0116300D03*
X0006339Y0126300D03*
X0006339Y0136300D03*
X0006556Y0147127D03*
X0006556Y0157127D03*
X0006556Y0167127D03*
X0006556Y0177127D03*
X0006556Y0187127D03*
X0022422Y0187107D03*
X0042422Y0187107D03*
M02*
