G75*
%MOIN*%
%OFA0B0*%
%FSLAX25Y25*%
%IPPOS*%
%LPD*%
%AMOC8*
5,1,8,0,0,1.08239X$1,22.5*
%
%ADD10C,0.00000*%
%ADD11OC8,0.05200*%
%ADD12C,0.05200*%
%ADD13C,0.05150*%
%ADD14C,0.11220*%
%ADD15C,0.05200*%
%ADD16C,0.05937*%
%ADD17C,0.07400*%
%ADD18C,0.00600*%
%ADD19C,0.02578*%
%ADD20C,0.01600*%
D10*
X0001339Y0001300D02*
X0001339Y0198150D01*
X0198190Y0198150D01*
X0198190Y0001300D01*
X0001339Y0001300D01*
D11*
X0021595Y0006969D03*
X0021595Y0016969D03*
X0039509Y0016753D03*
X0039509Y0006753D03*
X0059607Y0030394D03*
X0069666Y0042442D03*
X0069666Y0052442D03*
X0055276Y0061359D03*
X0041950Y0061398D03*
X0029513Y0061379D03*
X0029513Y0101379D03*
X0041950Y0101398D03*
X0055276Y0101359D03*
X0129863Y0162422D03*
X0129863Y0172422D03*
X0091930Y0192068D03*
X0051930Y0192068D03*
X0147276Y0112143D03*
X0113426Y0020867D03*
X0113426Y0010867D03*
X0101418Y0016398D03*
X0093918Y0011398D03*
X0093918Y0021398D03*
X0077082Y0021365D03*
X0077082Y0011365D03*
D12*
X0059607Y0010394D03*
X0147276Y0092143D03*
D13*
X0162501Y0028784D03*
X0167225Y0025635D03*
X0162501Y0022485D03*
X0167225Y0019335D03*
X0162501Y0016186D03*
X0147225Y0011182D03*
X0139351Y0011182D03*
X0131477Y0011182D03*
D14*
X0182580Y0008115D03*
X0182580Y0036855D03*
D15*
X0116046Y0042363D02*
X0110846Y0042363D01*
X0110846Y0052363D02*
X0116046Y0052363D01*
X0116046Y0062363D02*
X0110846Y0062363D01*
X0110846Y0072363D02*
X0116046Y0072363D01*
X0116046Y0082363D02*
X0110846Y0082363D01*
X0110846Y0092363D02*
X0116046Y0092363D01*
X0116046Y0102363D02*
X0110846Y0102363D01*
X0110846Y0112363D02*
X0116046Y0112363D01*
X0116046Y0122363D02*
X0110846Y0122363D01*
X0110846Y0132363D02*
X0116046Y0132363D01*
X0116046Y0142363D02*
X0110846Y0142363D01*
X0110846Y0152363D02*
X0116046Y0152363D01*
X0116046Y0162363D02*
X0110846Y0162363D01*
X0110846Y0172363D02*
X0116046Y0172363D01*
X0086046Y0172363D02*
X0080846Y0172363D01*
X0080846Y0162363D02*
X0086046Y0162363D01*
X0086046Y0152363D02*
X0080846Y0152363D01*
X0080846Y0142363D02*
X0086046Y0142363D01*
X0086046Y0132363D02*
X0080846Y0132363D01*
X0080846Y0122363D02*
X0086046Y0122363D01*
X0086046Y0112363D02*
X0080846Y0112363D01*
X0080846Y0102363D02*
X0086046Y0102363D01*
X0086046Y0092363D02*
X0080846Y0092363D01*
X0080846Y0082363D02*
X0086046Y0082363D01*
X0086046Y0072363D02*
X0080846Y0072363D01*
X0080846Y0062363D02*
X0086046Y0062363D01*
X0086046Y0052363D02*
X0080846Y0052363D01*
X0080846Y0042363D02*
X0086046Y0042363D01*
D16*
X0123603Y0011182D03*
X0155099Y0011182D03*
D17*
X0193839Y0066300D03*
X0193839Y0076300D03*
X0193839Y0086300D03*
X0193839Y0096300D03*
X0193839Y0106300D03*
X0193839Y0116300D03*
X0193839Y0126300D03*
X0193839Y0136300D03*
X0069627Y0102360D03*
X0069627Y0092360D03*
X0069627Y0082360D03*
X0027950Y0049406D03*
X0007950Y0049406D03*
X0006339Y0066300D03*
X0006339Y0076300D03*
X0006339Y0086300D03*
X0006339Y0096300D03*
X0006339Y0106300D03*
X0006339Y0116300D03*
X0006339Y0126300D03*
X0006339Y0136300D03*
X0006556Y0147127D03*
X0006556Y0157127D03*
X0006556Y0167127D03*
X0006556Y0177127D03*
X0006556Y0187127D03*
X0022422Y0187107D03*
X0042422Y0187107D03*
D18*
X0047195Y0185043D02*
X0196690Y0185043D01*
X0196690Y0185641D02*
X0047443Y0185641D01*
X0047622Y0186073D02*
X0046830Y0184162D01*
X0045368Y0182699D01*
X0043456Y0181907D01*
X0041388Y0181907D01*
X0039476Y0182699D01*
X0038014Y0184162D01*
X0037222Y0186073D01*
X0037222Y0188141D01*
X0038014Y0190053D01*
X0039476Y0191515D01*
X0041388Y0192307D01*
X0043456Y0192307D01*
X0045368Y0191515D01*
X0046830Y0190053D01*
X0047622Y0188141D01*
X0047622Y0186073D01*
X0047622Y0186240D02*
X0196690Y0186240D01*
X0196690Y0186839D02*
X0047622Y0186839D01*
X0047622Y0187437D02*
X0196690Y0187437D01*
X0196690Y0188036D02*
X0093696Y0188036D01*
X0093628Y0187968D02*
X0096030Y0190369D01*
X0096030Y0193766D01*
X0093628Y0196168D01*
X0090232Y0196168D01*
X0087830Y0193766D01*
X0087830Y0190369D01*
X0090232Y0187968D01*
X0093628Y0187968D01*
X0094295Y0188634D02*
X0196690Y0188634D01*
X0196690Y0189233D02*
X0094893Y0189233D01*
X0095492Y0189831D02*
X0196690Y0189831D01*
X0196690Y0190430D02*
X0096030Y0190430D01*
X0096030Y0191028D02*
X0196690Y0191028D01*
X0196690Y0191627D02*
X0096030Y0191627D01*
X0096030Y0192225D02*
X0196690Y0192225D01*
X0196690Y0192824D02*
X0096030Y0192824D01*
X0096030Y0193422D02*
X0196690Y0193422D01*
X0196690Y0194021D02*
X0095775Y0194021D01*
X0095177Y0194619D02*
X0196690Y0194619D01*
X0196690Y0195218D02*
X0094578Y0195218D01*
X0093980Y0195816D02*
X0196690Y0195816D01*
X0196690Y0196415D02*
X0002839Y0196415D01*
X0002839Y0196650D02*
X0196690Y0196650D01*
X0196690Y0140748D01*
X0194874Y0141500D01*
X0192805Y0141500D01*
X0190894Y0140708D01*
X0189431Y0139246D01*
X0188639Y0137334D01*
X0188639Y0135266D01*
X0189431Y0133354D01*
X0190894Y0131892D01*
X0192322Y0131300D01*
X0190894Y0130708D01*
X0189431Y0129246D01*
X0188639Y0127334D01*
X0188639Y0125266D01*
X0189431Y0123354D01*
X0190894Y0121892D01*
X0192322Y0121300D01*
X0190894Y0120708D01*
X0189431Y0119246D01*
X0188639Y0117334D01*
X0188639Y0115266D01*
X0189431Y0113354D01*
X0190894Y0111892D01*
X0192322Y0111300D01*
X0190894Y0110708D01*
X0189431Y0109246D01*
X0188639Y0107334D01*
X0188639Y0105266D01*
X0189431Y0103354D01*
X0190894Y0101892D01*
X0192322Y0101300D01*
X0190894Y0100708D01*
X0189431Y0099246D01*
X0188639Y0097334D01*
X0188639Y0095266D01*
X0149951Y0095266D01*
X0149599Y0095618D02*
X0150752Y0094465D01*
X0151376Y0092958D01*
X0151376Y0091327D01*
X0150752Y0089820D01*
X0149599Y0088667D01*
X0148092Y0088043D01*
X0146461Y0088043D01*
X0144954Y0088667D01*
X0143801Y0089820D01*
X0143176Y0091327D01*
X0143176Y0092958D01*
X0143801Y0094465D01*
X0144954Y0095618D01*
X0146461Y0096243D01*
X0148092Y0096243D01*
X0149599Y0095618D01*
X0149004Y0095865D02*
X0188639Y0095865D01*
X0188639Y0096463D02*
X0132598Y0096463D01*
X0133197Y0095865D02*
X0145549Y0095865D01*
X0144602Y0095266D02*
X0133795Y0095266D01*
X0134394Y0094668D02*
X0144003Y0094668D01*
X0143637Y0094069D02*
X0134992Y0094069D01*
X0135591Y0093471D02*
X0143389Y0093471D01*
X0143176Y0092872D02*
X0136189Y0092872D01*
X0136788Y0092274D02*
X0143176Y0092274D01*
X0143176Y0091675D02*
X0137386Y0091675D01*
X0137985Y0091077D02*
X0143280Y0091077D01*
X0143528Y0090478D02*
X0138583Y0090478D01*
X0139182Y0089880D02*
X0143776Y0089880D01*
X0144339Y0089281D02*
X0139780Y0089281D01*
X0140379Y0088683D02*
X0144938Y0088683D01*
X0146360Y0088084D02*
X0140977Y0088084D01*
X0141576Y0087486D02*
X0188702Y0087486D01*
X0188639Y0087334D02*
X0188639Y0085266D01*
X0189431Y0083354D01*
X0190894Y0081892D01*
X0192322Y0081300D01*
X0190894Y0080708D01*
X0189431Y0079246D01*
X0188639Y0077334D01*
X0188639Y0075266D01*
X0189431Y0073354D01*
X0190894Y0071892D01*
X0192641Y0071168D01*
X0191920Y0070934D01*
X0191219Y0070576D01*
X0190582Y0070114D01*
X0190026Y0069557D01*
X0189563Y0068921D01*
X0189206Y0068219D01*
X0188962Y0067471D01*
X0188839Y0066694D01*
X0188839Y0066600D01*
X0193539Y0066600D01*
X0193539Y0066000D01*
X0188839Y0066000D01*
X0188839Y0065906D01*
X0188962Y0065129D01*
X0189206Y0064381D01*
X0189563Y0063679D01*
X0190026Y0063043D01*
X0190582Y0062486D01*
X0191219Y0062024D01*
X0191920Y0061666D01*
X0192669Y0061423D01*
X0193446Y0061300D01*
X0193539Y0061300D01*
X0193539Y0066000D01*
X0194139Y0066000D01*
X0194139Y0061300D01*
X0194233Y0061300D01*
X0195010Y0061423D01*
X0195759Y0061666D01*
X0196460Y0062024D01*
X0196690Y0062191D01*
X0196690Y0002800D01*
X0187320Y0002800D01*
X0188607Y0004087D01*
X0189690Y0006701D01*
X0189690Y0009529D01*
X0188607Y0012143D01*
X0186607Y0014143D01*
X0183994Y0015225D01*
X0181165Y0015225D01*
X0178552Y0014143D01*
X0176552Y0012143D01*
X0175469Y0009529D01*
X0175469Y0006701D01*
X0176552Y0004087D01*
X0177839Y0002800D01*
X0041354Y0002800D01*
X0043609Y0005054D01*
X0043609Y0008451D01*
X0041207Y0010853D01*
X0037810Y0010853D01*
X0035409Y0008451D01*
X0035409Y0005054D01*
X0037663Y0002800D01*
X0002839Y0002800D01*
X0002839Y0062729D01*
X0003082Y0062486D01*
X0003719Y0062024D01*
X0004420Y0061666D01*
X0005169Y0061423D01*
X0005946Y0061300D01*
X0006039Y0061300D01*
X0006039Y0066000D01*
X0006639Y0066000D01*
X0006639Y0061300D01*
X0006733Y0061300D01*
X0007510Y0061423D01*
X0008259Y0061666D01*
X0008960Y0062024D01*
X0009597Y0062486D01*
X0010153Y0063043D01*
X0010616Y0063679D01*
X0010973Y0064381D01*
X0011216Y0065129D01*
X0011339Y0065906D01*
X0011339Y0066000D01*
X0006639Y0066000D01*
X0006639Y0066600D01*
X0011339Y0066600D01*
X0011339Y0066694D01*
X0011216Y0067471D01*
X0010973Y0068219D01*
X0010616Y0068921D01*
X0010153Y0069557D01*
X0009597Y0070114D01*
X0008960Y0070576D01*
X0008259Y0070934D01*
X0007538Y0071168D01*
X0009285Y0071892D01*
X0010748Y0073354D01*
X0011539Y0075266D01*
X0011539Y0077334D01*
X0011177Y0078210D01*
X0014039Y0075347D01*
X0014039Y0013944D01*
X0013975Y0013880D01*
X0013550Y0012855D01*
X0013550Y0011745D01*
X0013975Y0010720D01*
X0014760Y0009936D01*
X0015785Y0009511D01*
X0016894Y0009511D01*
X0017919Y0009936D01*
X0018704Y0010720D01*
X0019128Y0011745D01*
X0019128Y0012855D01*
X0018704Y0013880D01*
X0018639Y0013944D01*
X0018639Y0014127D01*
X0019897Y0012869D01*
X0023294Y0012869D01*
X0025695Y0015271D01*
X0025695Y0018668D01*
X0023895Y0020468D01*
X0023895Y0027603D01*
X0044250Y0047958D01*
X0044250Y0057900D01*
X0046050Y0059700D01*
X0046050Y0063097D01*
X0043648Y0065498D01*
X0040251Y0065498D01*
X0037850Y0063097D01*
X0037850Y0059700D01*
X0039650Y0057900D01*
X0039650Y0049863D01*
X0019295Y0029509D01*
X0019295Y0020468D01*
X0018639Y0019812D01*
X0018639Y0077253D01*
X0011272Y0084620D01*
X0011539Y0085266D01*
X0011539Y0087334D01*
X0011177Y0088210D01*
X0019039Y0080347D01*
X0019039Y0055347D01*
X0020387Y0054000D01*
X0023100Y0051287D01*
X0022750Y0050441D01*
X0022750Y0048372D01*
X0023541Y0046461D01*
X0025004Y0044998D01*
X0026915Y0044206D01*
X0028984Y0044206D01*
X0030895Y0044998D01*
X0032358Y0046461D01*
X0033150Y0048372D01*
X0033150Y0050441D01*
X0032358Y0052352D01*
X0030895Y0053815D01*
X0028984Y0054606D01*
X0026915Y0054606D01*
X0026470Y0054422D01*
X0023639Y0057253D01*
X0023639Y0082253D01*
X0011272Y0094620D01*
X0011539Y0095266D01*
X0065558Y0095266D01*
X0065350Y0094980D02*
X0064993Y0094279D01*
X0064750Y0093531D01*
X0064627Y0092753D01*
X0064627Y0092660D01*
X0069327Y0092660D01*
X0069327Y0092060D01*
X0064627Y0092060D01*
X0064627Y0091966D01*
X0064750Y0091189D01*
X0064993Y0090441D01*
X0065350Y0089739D01*
X0065813Y0089103D01*
X0066369Y0088546D01*
X0067006Y0088083D01*
X0067707Y0087726D01*
X0068428Y0087492D01*
X0066681Y0086768D01*
X0065218Y0085305D01*
X0064427Y0083394D01*
X0064427Y0081325D01*
X0065218Y0079414D01*
X0066681Y0077951D01*
X0068592Y0077160D01*
X0070661Y0077160D01*
X0072572Y0077951D01*
X0074035Y0079414D01*
X0074827Y0081325D01*
X0074827Y0083394D01*
X0074035Y0085305D01*
X0072572Y0086768D01*
X0070825Y0087492D01*
X0071546Y0087726D01*
X0072247Y0088083D01*
X0072884Y0088546D01*
X0073441Y0089103D01*
X0073903Y0089739D01*
X0074260Y0090441D01*
X0074504Y0091189D01*
X0074627Y0091966D01*
X0074627Y0092060D01*
X0069927Y0092060D01*
X0069927Y0092660D01*
X0074627Y0092660D01*
X0074627Y0092753D01*
X0074504Y0093531D01*
X0074260Y0094279D01*
X0073903Y0094980D01*
X0073441Y0095617D01*
X0072884Y0096174D01*
X0072247Y0096636D01*
X0071546Y0096994D01*
X0070825Y0097228D01*
X0072572Y0097951D01*
X0074035Y0099414D01*
X0074827Y0101325D01*
X0074827Y0103394D01*
X0074035Y0105305D01*
X0072572Y0106768D01*
X0070661Y0107560D01*
X0068592Y0107560D01*
X0066681Y0106768D01*
X0065218Y0105305D01*
X0064427Y0103394D01*
X0064427Y0101325D01*
X0065218Y0099414D01*
X0066681Y0097951D01*
X0068428Y0097228D01*
X0067707Y0096994D01*
X0067006Y0096636D01*
X0066369Y0096174D01*
X0065813Y0095617D01*
X0065350Y0094980D01*
X0065191Y0094668D02*
X0011292Y0094668D01*
X0011539Y0095266D02*
X0011539Y0097334D01*
X0010748Y0099246D01*
X0009285Y0100708D01*
X0007857Y0101300D01*
X0009285Y0101892D01*
X0010748Y0103354D01*
X0011539Y0105266D01*
X0011539Y0107334D01*
X0010748Y0109246D01*
X0009285Y0110708D01*
X0007857Y0111300D01*
X0009285Y0111892D01*
X0010748Y0113354D01*
X0011539Y0115266D01*
X0011539Y0117334D01*
X0010748Y0119246D01*
X0009285Y0120708D01*
X0007857Y0121300D01*
X0009285Y0121892D01*
X0010748Y0123354D01*
X0011015Y0124000D01*
X0037292Y0124000D01*
X0063355Y0150063D01*
X0077361Y0150063D01*
X0077370Y0150041D01*
X0078523Y0148887D01*
X0080030Y0148263D01*
X0086861Y0148263D01*
X0088368Y0148887D01*
X0089521Y0150041D01*
X0090146Y0151547D01*
X0090146Y0153179D01*
X0089521Y0154685D01*
X0088368Y0155839D01*
X0086861Y0156463D01*
X0080030Y0156463D01*
X0078523Y0155839D01*
X0077370Y0154685D01*
X0077361Y0154663D01*
X0061450Y0154663D01*
X0035387Y0128600D01*
X0011015Y0128600D01*
X0010748Y0129246D01*
X0009285Y0130708D01*
X0007857Y0131300D01*
X0009285Y0131892D01*
X0010748Y0133354D01*
X0011015Y0134000D01*
X0034792Y0134000D01*
X0060855Y0160063D01*
X0077361Y0160063D01*
X0077370Y0160041D01*
X0078523Y0158887D01*
X0080030Y0158263D01*
X0086861Y0158263D01*
X0088368Y0158887D01*
X0089521Y0160041D01*
X0090146Y0161547D01*
X0090146Y0163179D01*
X0089521Y0164685D01*
X0088368Y0165839D01*
X0086861Y0166463D01*
X0080030Y0166463D01*
X0078523Y0165839D01*
X0077370Y0164685D01*
X0077361Y0164663D01*
X0058950Y0164663D01*
X0032887Y0138600D01*
X0011015Y0138600D01*
X0010748Y0139246D01*
X0009285Y0140708D01*
X0007374Y0141500D01*
X0005305Y0141500D01*
X0003394Y0140708D01*
X0002839Y0140154D01*
X0002839Y0143489D01*
X0003610Y0142718D01*
X0005522Y0141927D01*
X0007590Y0141927D01*
X0009501Y0142718D01*
X0010964Y0144181D01*
X0011756Y0146092D01*
X0011756Y0148161D01*
X0010964Y0150072D01*
X0009501Y0151535D01*
X0008073Y0152127D01*
X0009501Y0152718D01*
X0010964Y0154181D01*
X0011756Y0156092D01*
X0011756Y0158161D01*
X0010964Y0160072D01*
X0009501Y0161535D01*
X0007754Y0162259D01*
X0008475Y0162493D01*
X0009176Y0162850D01*
X0009813Y0163313D01*
X0010370Y0163869D01*
X0010832Y0164506D01*
X0011190Y0165207D01*
X0011433Y0165956D01*
X0011556Y0166733D01*
X0011556Y0166827D01*
X0006856Y0166827D01*
X0006856Y0167427D01*
X0011556Y0167427D01*
X0011556Y0167520D01*
X0011433Y0168298D01*
X0011190Y0169046D01*
X0010832Y0169747D01*
X0010370Y0170384D01*
X0009813Y0170941D01*
X0009176Y0171403D01*
X0008475Y0171760D01*
X0007754Y0171995D01*
X0009501Y0172718D01*
X0010964Y0174181D01*
X0011756Y0176092D01*
X0011756Y0178161D01*
X0010964Y0180072D01*
X0009501Y0181535D01*
X0008073Y0182127D01*
X0009501Y0182718D01*
X0010964Y0184181D01*
X0011756Y0186092D01*
X0011756Y0188161D01*
X0010964Y0190072D01*
X0009501Y0191535D01*
X0007590Y0192327D01*
X0005522Y0192327D01*
X0003610Y0191535D01*
X0002839Y0190764D01*
X0002839Y0196650D01*
X0002839Y0195816D02*
X0049880Y0195816D01*
X0050232Y0196168D02*
X0047830Y0193766D01*
X0047830Y0190369D01*
X0050232Y0187968D01*
X0053628Y0187968D01*
X0056030Y0190369D01*
X0056030Y0193766D01*
X0053628Y0196168D01*
X0050232Y0196168D01*
X0049282Y0195218D02*
X0002839Y0195218D01*
X0002839Y0194619D02*
X0048683Y0194619D01*
X0048085Y0194021D02*
X0002839Y0194021D01*
X0002839Y0193422D02*
X0047830Y0193422D01*
X0047830Y0192824D02*
X0002839Y0192824D01*
X0002839Y0192225D02*
X0005276Y0192225D01*
X0003831Y0191627D02*
X0002839Y0191627D01*
X0002839Y0191028D02*
X0003103Y0191028D01*
X0007836Y0192225D02*
X0041190Y0192225D01*
X0039745Y0191627D02*
X0024565Y0191627D01*
X0024341Y0191741D02*
X0023593Y0191984D01*
X0022816Y0192107D01*
X0022722Y0192107D01*
X0022722Y0187407D01*
X0027422Y0187407D01*
X0027422Y0187501D01*
X0027299Y0188278D01*
X0027056Y0189026D01*
X0026698Y0189728D01*
X0026236Y0190364D01*
X0025679Y0190921D01*
X0025043Y0191383D01*
X0024341Y0191741D01*
X0025532Y0191028D02*
X0038989Y0191028D01*
X0038391Y0190430D02*
X0026171Y0190430D01*
X0026623Y0189831D02*
X0037922Y0189831D01*
X0037674Y0189233D02*
X0026951Y0189233D01*
X0027183Y0188634D02*
X0037426Y0188634D01*
X0037222Y0188036D02*
X0027337Y0188036D01*
X0027422Y0187437D02*
X0037222Y0187437D01*
X0037222Y0186839D02*
X0022722Y0186839D01*
X0022722Y0186807D02*
X0022722Y0187407D01*
X0022122Y0187407D01*
X0022122Y0186807D01*
X0022722Y0186807D01*
X0022722Y0182107D01*
X0022816Y0182107D01*
X0023593Y0182230D01*
X0024341Y0182473D01*
X0025043Y0182831D01*
X0025679Y0183293D01*
X0026236Y0183850D01*
X0026698Y0184487D01*
X0027056Y0185188D01*
X0027299Y0185936D01*
X0027422Y0186714D01*
X0027422Y0186807D01*
X0022722Y0186807D01*
X0022722Y0186240D02*
X0022122Y0186240D01*
X0022122Y0186807D02*
X0022122Y0182107D01*
X0022029Y0182107D01*
X0021251Y0182230D01*
X0020503Y0182473D01*
X0019801Y0182831D01*
X0019165Y0183293D01*
X0018608Y0183850D01*
X0018146Y0184487D01*
X0017788Y0185188D01*
X0017545Y0185936D01*
X0017422Y0186714D01*
X0017422Y0186807D01*
X0022122Y0186807D01*
X0022122Y0186839D02*
X0011756Y0186839D01*
X0011756Y0187437D02*
X0017422Y0187437D01*
X0017422Y0187407D02*
X0022122Y0187407D01*
X0022122Y0192107D01*
X0022029Y0192107D01*
X0021251Y0191984D01*
X0020503Y0191741D01*
X0019801Y0191383D01*
X0019165Y0190921D01*
X0018608Y0190364D01*
X0018146Y0189728D01*
X0017788Y0189026D01*
X0017545Y0188278D01*
X0017422Y0187501D01*
X0017422Y0187407D01*
X0017507Y0188036D02*
X0011756Y0188036D01*
X0011560Y0188634D02*
X0017661Y0188634D01*
X0017893Y0189233D02*
X0011312Y0189233D01*
X0011064Y0189831D02*
X0018221Y0189831D01*
X0018673Y0190430D02*
X0010607Y0190430D01*
X0010008Y0191028D02*
X0019312Y0191028D01*
X0020279Y0191627D02*
X0009281Y0191627D01*
X0011756Y0186240D02*
X0017497Y0186240D01*
X0017641Y0185641D02*
X0011569Y0185641D01*
X0011321Y0185043D02*
X0017862Y0185043D01*
X0018176Y0184444D02*
X0011073Y0184444D01*
X0010629Y0183846D02*
X0018612Y0183846D01*
X0019228Y0183247D02*
X0010030Y0183247D01*
X0009334Y0182649D02*
X0020158Y0182649D01*
X0022122Y0182649D02*
X0022722Y0182649D01*
X0022722Y0183247D02*
X0022122Y0183247D01*
X0022122Y0183846D02*
X0022722Y0183846D01*
X0022722Y0184444D02*
X0022122Y0184444D01*
X0022122Y0185043D02*
X0022722Y0185043D01*
X0022722Y0185641D02*
X0022122Y0185641D01*
X0022122Y0187437D02*
X0022722Y0187437D01*
X0022722Y0188036D02*
X0022122Y0188036D01*
X0022122Y0188634D02*
X0022722Y0188634D01*
X0022722Y0189233D02*
X0022122Y0189233D01*
X0022122Y0189831D02*
X0022722Y0189831D01*
X0022722Y0190430D02*
X0022122Y0190430D01*
X0022122Y0191028D02*
X0022722Y0191028D01*
X0022722Y0191627D02*
X0022122Y0191627D01*
X0027347Y0186240D02*
X0037222Y0186240D01*
X0037401Y0185641D02*
X0027203Y0185641D01*
X0026982Y0185043D02*
X0037649Y0185043D01*
X0037896Y0184444D02*
X0026668Y0184444D01*
X0026232Y0183846D02*
X0038329Y0183846D01*
X0038928Y0183247D02*
X0025616Y0183247D01*
X0024686Y0182649D02*
X0039597Y0182649D01*
X0041042Y0182050D02*
X0008257Y0182050D01*
X0009585Y0181452D02*
X0068239Y0181452D01*
X0068550Y0181764D02*
X0060876Y0174089D01*
X0060785Y0174089D01*
X0059760Y0173664D01*
X0058975Y0172880D01*
X0058550Y0171855D01*
X0058550Y0170745D01*
X0058975Y0169720D01*
X0059760Y0168936D01*
X0060785Y0168511D01*
X0061894Y0168511D01*
X0062919Y0168936D01*
X0063704Y0169720D01*
X0064128Y0170745D01*
X0064128Y0170836D01*
X0071803Y0178511D01*
X0071894Y0178511D01*
X0072919Y0178936D01*
X0073704Y0179720D01*
X0074128Y0180745D01*
X0074128Y0181855D01*
X0073704Y0182880D01*
X0072919Y0183664D01*
X0071894Y0184089D01*
X0070785Y0184089D01*
X0069760Y0183664D01*
X0068975Y0182880D01*
X0068550Y0181855D01*
X0068550Y0181764D01*
X0068631Y0182050D02*
X0043802Y0182050D01*
X0045247Y0182649D02*
X0068879Y0182649D01*
X0069343Y0183247D02*
X0045916Y0183247D01*
X0046515Y0183846D02*
X0070198Y0183846D01*
X0072481Y0183846D02*
X0196690Y0183846D01*
X0196690Y0184444D02*
X0046948Y0184444D01*
X0047622Y0188036D02*
X0050164Y0188036D01*
X0049565Y0188634D02*
X0047418Y0188634D01*
X0047170Y0189233D02*
X0048967Y0189233D01*
X0048368Y0189831D02*
X0046922Y0189831D01*
X0046453Y0190430D02*
X0047830Y0190430D01*
X0047830Y0191028D02*
X0045855Y0191028D01*
X0045099Y0191627D02*
X0047830Y0191627D01*
X0047830Y0192225D02*
X0043654Y0192225D01*
X0053696Y0188036D02*
X0090164Y0188036D01*
X0089565Y0188634D02*
X0054295Y0188634D01*
X0054893Y0189233D02*
X0088967Y0189233D01*
X0088368Y0189831D02*
X0055492Y0189831D01*
X0056030Y0190430D02*
X0087830Y0190430D01*
X0087830Y0191028D02*
X0056030Y0191028D01*
X0056030Y0191627D02*
X0087830Y0191627D01*
X0087830Y0192225D02*
X0056030Y0192225D01*
X0056030Y0192824D02*
X0087830Y0192824D01*
X0087830Y0193422D02*
X0056030Y0193422D01*
X0055775Y0194021D02*
X0088085Y0194021D01*
X0088683Y0194619D02*
X0055177Y0194619D01*
X0054578Y0195218D02*
X0089282Y0195218D01*
X0089880Y0195816D02*
X0053980Y0195816D01*
X0067640Y0180853D02*
X0010183Y0180853D01*
X0010782Y0180255D02*
X0067042Y0180255D01*
X0066443Y0179656D02*
X0011137Y0179656D01*
X0011384Y0179058D02*
X0065845Y0179058D01*
X0065246Y0178459D02*
X0011632Y0178459D01*
X0011756Y0177861D02*
X0064648Y0177861D01*
X0064049Y0177262D02*
X0011756Y0177262D01*
X0011756Y0176664D02*
X0063451Y0176664D01*
X0062852Y0176065D02*
X0011745Y0176065D01*
X0011497Y0175467D02*
X0062253Y0175467D01*
X0061655Y0174868D02*
X0011249Y0174868D01*
X0011001Y0174270D02*
X0061056Y0174270D01*
X0059776Y0173671D02*
X0010454Y0173671D01*
X0009856Y0173073D02*
X0059168Y0173073D01*
X0058807Y0172474D02*
X0008912Y0172474D01*
X0008120Y0171876D02*
X0058559Y0171876D01*
X0058550Y0171277D02*
X0009350Y0171277D01*
X0010075Y0170679D02*
X0058578Y0170679D01*
X0058826Y0170080D02*
X0010590Y0170080D01*
X0010968Y0169482D02*
X0059213Y0169482D01*
X0059886Y0168883D02*
X0011243Y0168883D01*
X0011435Y0168285D02*
X0079978Y0168285D01*
X0080030Y0168263D02*
X0086861Y0168263D01*
X0088368Y0168887D01*
X0089521Y0170041D01*
X0090146Y0171547D01*
X0090146Y0173179D01*
X0089521Y0174685D01*
X0088368Y0175839D01*
X0086861Y0176463D01*
X0080030Y0176463D01*
X0078523Y0175839D01*
X0077370Y0174685D01*
X0076746Y0173179D01*
X0076746Y0171547D01*
X0077370Y0170041D01*
X0078523Y0168887D01*
X0080030Y0168263D01*
X0078533Y0168883D02*
X0062793Y0168883D01*
X0063465Y0169482D02*
X0077929Y0169482D01*
X0077353Y0170080D02*
X0063853Y0170080D01*
X0064101Y0170679D02*
X0077106Y0170679D01*
X0076858Y0171277D02*
X0064569Y0171277D01*
X0065168Y0171876D02*
X0076746Y0171876D01*
X0076746Y0172474D02*
X0065766Y0172474D01*
X0066365Y0173073D02*
X0076746Y0173073D01*
X0076950Y0173671D02*
X0066963Y0173671D01*
X0067562Y0174270D02*
X0077198Y0174270D01*
X0077553Y0174868D02*
X0068160Y0174868D01*
X0068759Y0175467D02*
X0078151Y0175467D01*
X0079070Y0176065D02*
X0069357Y0176065D01*
X0069956Y0176664D02*
X0196690Y0176664D01*
X0196690Y0177262D02*
X0070554Y0177262D01*
X0071153Y0177861D02*
X0196690Y0177861D01*
X0196690Y0178459D02*
X0071751Y0178459D01*
X0073041Y0179058D02*
X0196690Y0179058D01*
X0196690Y0179656D02*
X0073640Y0179656D01*
X0073925Y0180255D02*
X0196690Y0180255D01*
X0196690Y0180853D02*
X0074128Y0180853D01*
X0074128Y0181452D02*
X0196690Y0181452D01*
X0196690Y0182050D02*
X0074047Y0182050D01*
X0073799Y0182649D02*
X0196690Y0182649D01*
X0196690Y0183247D02*
X0073336Y0183247D01*
X0086914Y0168285D02*
X0109978Y0168285D01*
X0110030Y0168263D02*
X0116861Y0168263D01*
X0118368Y0168887D01*
X0119521Y0170041D01*
X0120146Y0171547D01*
X0120146Y0173179D01*
X0119521Y0174685D01*
X0118368Y0175839D01*
X0116861Y0176463D01*
X0110030Y0176463D01*
X0108523Y0175839D01*
X0107370Y0174685D01*
X0106746Y0173179D01*
X0106746Y0171547D01*
X0107370Y0170041D01*
X0108523Y0168887D01*
X0110030Y0168263D01*
X0108533Y0168883D02*
X0088358Y0168883D01*
X0088963Y0169482D02*
X0107929Y0169482D01*
X0107353Y0170080D02*
X0089538Y0170080D01*
X0089786Y0170679D02*
X0107106Y0170679D01*
X0106858Y0171277D02*
X0090034Y0171277D01*
X0090146Y0171876D02*
X0106746Y0171876D01*
X0106746Y0172474D02*
X0090146Y0172474D01*
X0090146Y0173073D02*
X0106746Y0173073D01*
X0106950Y0173671D02*
X0089942Y0173671D01*
X0089694Y0174270D02*
X0107198Y0174270D01*
X0107553Y0174868D02*
X0089339Y0174868D01*
X0088740Y0175467D02*
X0108151Y0175467D01*
X0109070Y0176065D02*
X0087821Y0176065D01*
X0088243Y0165891D02*
X0109171Y0165891D01*
X0108998Y0165819D02*
X0108360Y0165392D01*
X0107816Y0164849D01*
X0107390Y0164210D01*
X0107096Y0163501D01*
X0106946Y0162747D01*
X0106946Y0162663D01*
X0113146Y0162663D01*
X0113146Y0166263D01*
X0110462Y0166263D01*
X0109708Y0166113D01*
X0108998Y0165819D01*
X0108259Y0165292D02*
X0088915Y0165292D01*
X0089513Y0164694D02*
X0107712Y0164694D01*
X0107342Y0164095D02*
X0089766Y0164095D01*
X0090014Y0163497D02*
X0107095Y0163497D01*
X0106976Y0162898D02*
X0090146Y0162898D01*
X0090146Y0162300D02*
X0113146Y0162300D01*
X0113146Y0162063D02*
X0106946Y0162063D01*
X0106946Y0161979D01*
X0107096Y0161225D01*
X0107390Y0160516D01*
X0107816Y0159877D01*
X0108360Y0159334D01*
X0108998Y0158907D01*
X0109708Y0158613D01*
X0110462Y0158463D01*
X0113146Y0158463D01*
X0113146Y0162063D01*
X0113746Y0162063D01*
X0113746Y0162663D01*
X0119946Y0162663D01*
X0119946Y0162747D01*
X0119796Y0163501D01*
X0119502Y0164210D01*
X0119075Y0164849D01*
X0118532Y0165392D01*
X0117893Y0165819D01*
X0117183Y0166113D01*
X0116430Y0166263D01*
X0113746Y0166263D01*
X0113746Y0162663D01*
X0113146Y0162663D01*
X0113146Y0162063D01*
X0113146Y0161701D02*
X0113746Y0161701D01*
X0113746Y0162063D02*
X0113746Y0158463D01*
X0116430Y0158463D01*
X0117183Y0158613D01*
X0117893Y0158907D01*
X0118532Y0159334D01*
X0119075Y0159877D01*
X0119502Y0160516D01*
X0119796Y0161225D01*
X0119946Y0161979D01*
X0119946Y0162063D01*
X0113746Y0162063D01*
X0113746Y0162300D02*
X0129563Y0162300D01*
X0129563Y0162122D02*
X0125963Y0162122D01*
X0125963Y0160807D01*
X0128248Y0158522D01*
X0129563Y0158522D01*
X0129563Y0162122D01*
X0130163Y0162122D01*
X0130163Y0158522D01*
X0131478Y0158522D01*
X0133763Y0160807D01*
X0133763Y0162122D01*
X0130163Y0162122D01*
X0130163Y0162722D01*
X0133763Y0162722D01*
X0133763Y0164037D01*
X0131478Y0166322D01*
X0130163Y0166322D01*
X0130163Y0162722D01*
X0129563Y0162722D01*
X0129563Y0162122D01*
X0129563Y0161701D02*
X0130163Y0161701D01*
X0130163Y0161103D02*
X0129563Y0161103D01*
X0129563Y0160504D02*
X0130163Y0160504D01*
X0130163Y0159905D02*
X0129563Y0159905D01*
X0129563Y0159307D02*
X0130163Y0159307D01*
X0130163Y0158708D02*
X0129563Y0158708D01*
X0128061Y0158708D02*
X0117414Y0158708D01*
X0118492Y0159307D02*
X0127463Y0159307D01*
X0126864Y0159905D02*
X0119094Y0159905D01*
X0119494Y0160504D02*
X0126266Y0160504D01*
X0125963Y0161103D02*
X0119745Y0161103D01*
X0119890Y0161701D02*
X0125963Y0161701D01*
X0125963Y0162722D02*
X0129563Y0162722D01*
X0129563Y0166322D01*
X0128248Y0166322D01*
X0125963Y0164037D01*
X0125963Y0162722D01*
X0125963Y0162898D02*
X0119916Y0162898D01*
X0119797Y0163497D02*
X0125963Y0163497D01*
X0126021Y0164095D02*
X0119550Y0164095D01*
X0119179Y0164694D02*
X0126619Y0164694D01*
X0127218Y0165292D02*
X0118632Y0165292D01*
X0117720Y0165891D02*
X0127816Y0165891D01*
X0129563Y0165891D02*
X0130163Y0165891D01*
X0130163Y0165292D02*
X0129563Y0165292D01*
X0129563Y0164694D02*
X0130163Y0164694D01*
X0130163Y0164095D02*
X0129563Y0164095D01*
X0129563Y0163497D02*
X0130163Y0163497D01*
X0130163Y0162898D02*
X0129563Y0162898D01*
X0130163Y0162300D02*
X0196690Y0162300D01*
X0196690Y0162898D02*
X0133763Y0162898D01*
X0133763Y0163497D02*
X0196690Y0163497D01*
X0196690Y0164095D02*
X0133705Y0164095D01*
X0133107Y0164694D02*
X0196690Y0164694D01*
X0196690Y0165292D02*
X0132508Y0165292D01*
X0131910Y0165891D02*
X0196690Y0165891D01*
X0196690Y0166489D02*
X0011517Y0166489D01*
X0011412Y0165891D02*
X0078648Y0165891D01*
X0077977Y0165292D02*
X0011217Y0165292D01*
X0010928Y0164694D02*
X0077378Y0164694D01*
X0077505Y0159905D02*
X0060698Y0159905D01*
X0060099Y0159307D02*
X0078103Y0159307D01*
X0078955Y0158708D02*
X0059501Y0158708D01*
X0058902Y0158110D02*
X0196690Y0158110D01*
X0196690Y0158708D02*
X0131665Y0158708D01*
X0132263Y0159307D02*
X0196690Y0159307D01*
X0196690Y0159905D02*
X0132862Y0159905D01*
X0133460Y0160504D02*
X0196690Y0160504D01*
X0196690Y0161103D02*
X0133763Y0161103D01*
X0133763Y0161701D02*
X0196690Y0161701D01*
X0196690Y0167088D02*
X0006856Y0167088D01*
X0011530Y0167686D02*
X0196690Y0167686D01*
X0196690Y0168285D02*
X0116914Y0168285D01*
X0118358Y0168883D02*
X0127604Y0168883D01*
X0128165Y0168322D02*
X0125763Y0170724D01*
X0125763Y0174120D01*
X0128165Y0176522D01*
X0131561Y0176522D01*
X0133963Y0174120D01*
X0133963Y0170724D01*
X0131561Y0168322D01*
X0128165Y0168322D01*
X0127005Y0169482D02*
X0118963Y0169482D01*
X0119538Y0170080D02*
X0126407Y0170080D01*
X0125808Y0170679D02*
X0119786Y0170679D01*
X0120034Y0171277D02*
X0125763Y0171277D01*
X0125763Y0171876D02*
X0120146Y0171876D01*
X0120146Y0172474D02*
X0125763Y0172474D01*
X0125763Y0173073D02*
X0120146Y0173073D01*
X0119942Y0173671D02*
X0125763Y0173671D01*
X0125912Y0174270D02*
X0119694Y0174270D01*
X0119339Y0174868D02*
X0126511Y0174868D01*
X0127109Y0175467D02*
X0118740Y0175467D01*
X0117821Y0176065D02*
X0127708Y0176065D01*
X0132018Y0176065D02*
X0196690Y0176065D01*
X0196690Y0175467D02*
X0132616Y0175467D01*
X0133215Y0174868D02*
X0196690Y0174868D01*
X0196690Y0174270D02*
X0133814Y0174270D01*
X0133963Y0173671D02*
X0196690Y0173671D01*
X0196690Y0173073D02*
X0133963Y0173073D01*
X0133963Y0172474D02*
X0196690Y0172474D01*
X0196690Y0171876D02*
X0133963Y0171876D01*
X0133963Y0171277D02*
X0196690Y0171277D01*
X0196690Y0170679D02*
X0133918Y0170679D01*
X0133319Y0170080D02*
X0196690Y0170080D01*
X0196690Y0169482D02*
X0132721Y0169482D01*
X0132122Y0168883D02*
X0196690Y0168883D01*
X0196690Y0157511D02*
X0058304Y0157511D01*
X0057705Y0156913D02*
X0196690Y0156913D01*
X0196690Y0156314D02*
X0117220Y0156314D01*
X0116861Y0156463D02*
X0118368Y0155839D01*
X0119521Y0154685D01*
X0120146Y0153179D01*
X0120146Y0151547D01*
X0119521Y0150041D01*
X0118368Y0148887D01*
X0116861Y0148263D01*
X0110030Y0148263D01*
X0108523Y0148887D01*
X0107370Y0150041D01*
X0106746Y0151547D01*
X0106746Y0153179D01*
X0107370Y0154685D01*
X0108523Y0155839D01*
X0110030Y0156463D01*
X0116861Y0156463D01*
X0118491Y0155716D02*
X0196690Y0155716D01*
X0196690Y0155117D02*
X0119090Y0155117D01*
X0119590Y0154519D02*
X0196690Y0154519D01*
X0196690Y0153920D02*
X0119838Y0153920D01*
X0120086Y0153322D02*
X0196690Y0153322D01*
X0196690Y0152723D02*
X0120146Y0152723D01*
X0120146Y0152125D02*
X0196690Y0152125D01*
X0196690Y0151526D02*
X0120137Y0151526D01*
X0119889Y0150928D02*
X0196690Y0150928D01*
X0196690Y0150329D02*
X0119641Y0150329D01*
X0119212Y0149731D02*
X0196690Y0149731D01*
X0196690Y0149132D02*
X0118613Y0149132D01*
X0117515Y0148534D02*
X0196690Y0148534D01*
X0196690Y0147935D02*
X0061227Y0147935D01*
X0060629Y0147337D02*
X0196690Y0147337D01*
X0196690Y0146738D02*
X0060030Y0146738D01*
X0059432Y0146140D02*
X0079250Y0146140D01*
X0078523Y0145839D02*
X0077370Y0144685D01*
X0076746Y0143179D01*
X0076746Y0141547D01*
X0077370Y0140041D01*
X0078523Y0138887D01*
X0080030Y0138263D01*
X0086861Y0138263D01*
X0088368Y0138887D01*
X0089521Y0140041D01*
X0090146Y0141547D01*
X0090146Y0143179D01*
X0089521Y0144685D01*
X0088368Y0145839D01*
X0086861Y0146463D01*
X0080030Y0146463D01*
X0078523Y0145839D01*
X0078226Y0145541D02*
X0058833Y0145541D01*
X0058235Y0144943D02*
X0077627Y0144943D01*
X0077229Y0144344D02*
X0057636Y0144344D01*
X0057038Y0143746D02*
X0076981Y0143746D01*
X0076746Y0143147D02*
X0056439Y0143147D01*
X0055841Y0142549D02*
X0076746Y0142549D01*
X0076746Y0141950D02*
X0055242Y0141950D01*
X0054644Y0141352D02*
X0076827Y0141352D01*
X0077075Y0140753D02*
X0054045Y0140753D01*
X0053447Y0140155D02*
X0077323Y0140155D01*
X0077854Y0139556D02*
X0052848Y0139556D01*
X0052250Y0138958D02*
X0078453Y0138958D01*
X0079798Y0138359D02*
X0051651Y0138359D01*
X0051053Y0137761D02*
X0188816Y0137761D01*
X0188639Y0137162D02*
X0050454Y0137162D01*
X0049856Y0136564D02*
X0188639Y0136564D01*
X0188639Y0135965D02*
X0118063Y0135965D01*
X0118368Y0135839D02*
X0116861Y0136463D01*
X0110030Y0136463D01*
X0108523Y0135839D01*
X0107370Y0134685D01*
X0106746Y0133179D01*
X0106746Y0131547D01*
X0107370Y0130041D01*
X0108523Y0128887D01*
X0110030Y0128263D01*
X0116861Y0128263D01*
X0118368Y0128887D01*
X0119521Y0130041D01*
X0120146Y0131547D01*
X0120146Y0133179D01*
X0119521Y0134685D01*
X0118368Y0135839D01*
X0118840Y0135367D02*
X0188639Y0135367D01*
X0188845Y0134768D02*
X0119439Y0134768D01*
X0119735Y0134170D02*
X0189093Y0134170D01*
X0189341Y0133571D02*
X0119983Y0133571D01*
X0120146Y0132972D02*
X0189813Y0132972D01*
X0190411Y0132374D02*
X0120146Y0132374D01*
X0120146Y0131775D02*
X0191174Y0131775D01*
X0192025Y0131177D02*
X0119992Y0131177D01*
X0119744Y0130578D02*
X0190764Y0130578D01*
X0190165Y0129980D02*
X0119461Y0129980D01*
X0118862Y0129381D02*
X0189567Y0129381D01*
X0189239Y0128783D02*
X0118116Y0128783D01*
X0117040Y0126389D02*
X0188639Y0126389D01*
X0188639Y0126987D02*
X0040279Y0126987D01*
X0039681Y0126389D02*
X0079851Y0126389D01*
X0080030Y0126463D02*
X0078523Y0125839D01*
X0077370Y0124685D01*
X0076746Y0123179D01*
X0076746Y0121547D01*
X0077370Y0120041D01*
X0078523Y0118887D01*
X0080030Y0118263D01*
X0086861Y0118263D01*
X0088368Y0118887D01*
X0089521Y0120041D01*
X0090146Y0121547D01*
X0090146Y0123179D01*
X0089521Y0124685D01*
X0088368Y0125839D01*
X0086861Y0126463D01*
X0080030Y0126463D01*
X0078475Y0125790D02*
X0039082Y0125790D01*
X0038484Y0125192D02*
X0077876Y0125192D01*
X0077332Y0124593D02*
X0037885Y0124593D01*
X0040878Y0127586D02*
X0188744Y0127586D01*
X0188991Y0128184D02*
X0041476Y0128184D01*
X0042075Y0128783D02*
X0078775Y0128783D01*
X0078523Y0128887D02*
X0080030Y0128263D01*
X0086861Y0128263D01*
X0088368Y0128887D01*
X0089521Y0130041D01*
X0090146Y0131547D01*
X0090146Y0133179D01*
X0089521Y0134685D01*
X0088368Y0135839D01*
X0086861Y0136463D01*
X0080030Y0136463D01*
X0078523Y0135839D01*
X0077370Y0134685D01*
X0076746Y0133179D01*
X0076746Y0131547D01*
X0077370Y0130041D01*
X0078523Y0128887D01*
X0078029Y0129381D02*
X0042673Y0129381D01*
X0043272Y0129980D02*
X0077430Y0129980D01*
X0077147Y0130578D02*
X0043870Y0130578D01*
X0044469Y0131177D02*
X0076899Y0131177D01*
X0076746Y0131775D02*
X0045068Y0131775D01*
X0045666Y0132374D02*
X0076746Y0132374D01*
X0076746Y0132972D02*
X0046265Y0132972D01*
X0046863Y0133571D02*
X0076908Y0133571D01*
X0077156Y0134170D02*
X0047462Y0134170D01*
X0048060Y0134768D02*
X0077452Y0134768D01*
X0078051Y0135367D02*
X0048659Y0135367D01*
X0049257Y0135965D02*
X0078828Y0135965D01*
X0087093Y0138359D02*
X0109798Y0138359D01*
X0110030Y0138263D02*
X0116861Y0138263D01*
X0118368Y0138887D01*
X0119521Y0140041D01*
X0120146Y0141547D01*
X0120146Y0143179D01*
X0119521Y0144685D01*
X0118368Y0145839D01*
X0116861Y0146463D01*
X0110030Y0146463D01*
X0108523Y0145839D01*
X0107370Y0144685D01*
X0106746Y0143179D01*
X0106746Y0141547D01*
X0107370Y0140041D01*
X0108523Y0138887D01*
X0110030Y0138263D01*
X0108453Y0138958D02*
X0088439Y0138958D01*
X0089037Y0139556D02*
X0107854Y0139556D01*
X0107323Y0140155D02*
X0089569Y0140155D01*
X0089817Y0140753D02*
X0107075Y0140753D01*
X0106827Y0141352D02*
X0090065Y0141352D01*
X0090146Y0141950D02*
X0106746Y0141950D01*
X0106746Y0142549D02*
X0090146Y0142549D01*
X0090146Y0143147D02*
X0106746Y0143147D01*
X0106981Y0143746D02*
X0089911Y0143746D01*
X0089663Y0144344D02*
X0107229Y0144344D01*
X0107627Y0144943D02*
X0089264Y0144943D01*
X0088666Y0145541D02*
X0108226Y0145541D01*
X0109250Y0146140D02*
X0087642Y0146140D01*
X0087515Y0148534D02*
X0109376Y0148534D01*
X0108278Y0149132D02*
X0088613Y0149132D01*
X0089212Y0149731D02*
X0107680Y0149731D01*
X0107250Y0150329D02*
X0089641Y0150329D01*
X0089889Y0150928D02*
X0107002Y0150928D01*
X0106754Y0151526D02*
X0090137Y0151526D01*
X0090146Y0152125D02*
X0106746Y0152125D01*
X0106746Y0152723D02*
X0090146Y0152723D01*
X0090086Y0153322D02*
X0106805Y0153322D01*
X0107053Y0153920D02*
X0089838Y0153920D01*
X0089590Y0154519D02*
X0107301Y0154519D01*
X0107802Y0155117D02*
X0089090Y0155117D01*
X0088491Y0155716D02*
X0108400Y0155716D01*
X0109671Y0156314D02*
X0087220Y0156314D01*
X0087937Y0158708D02*
X0109477Y0158708D01*
X0108399Y0159307D02*
X0088788Y0159307D01*
X0089386Y0159905D02*
X0107797Y0159905D01*
X0107397Y0160504D02*
X0089713Y0160504D01*
X0089961Y0161103D02*
X0107146Y0161103D01*
X0107001Y0161701D02*
X0090146Y0161701D01*
X0079671Y0156314D02*
X0057106Y0156314D01*
X0056508Y0155716D02*
X0078400Y0155716D01*
X0077802Y0155117D02*
X0055909Y0155117D01*
X0055311Y0154519D02*
X0061306Y0154519D01*
X0060707Y0153920D02*
X0054712Y0153920D01*
X0054114Y0153322D02*
X0060109Y0153322D01*
X0059510Y0152723D02*
X0053515Y0152723D01*
X0052917Y0152125D02*
X0058912Y0152125D01*
X0058313Y0151526D02*
X0052318Y0151526D01*
X0051720Y0150928D02*
X0057715Y0150928D01*
X0057116Y0150329D02*
X0051121Y0150329D01*
X0050523Y0149731D02*
X0056517Y0149731D01*
X0055919Y0149132D02*
X0049924Y0149132D01*
X0049326Y0148534D02*
X0055320Y0148534D01*
X0054722Y0147935D02*
X0048727Y0147935D01*
X0048129Y0147337D02*
X0054123Y0147337D01*
X0053525Y0146738D02*
X0047530Y0146738D01*
X0046932Y0146140D02*
X0052926Y0146140D01*
X0052328Y0145541D02*
X0046333Y0145541D01*
X0045735Y0144943D02*
X0051729Y0144943D01*
X0051131Y0144344D02*
X0045136Y0144344D01*
X0044538Y0143746D02*
X0050532Y0143746D01*
X0049934Y0143147D02*
X0043939Y0143147D01*
X0043341Y0142549D02*
X0049335Y0142549D01*
X0048737Y0141950D02*
X0042742Y0141950D01*
X0042144Y0141352D02*
X0048138Y0141352D01*
X0047540Y0140753D02*
X0041545Y0140753D01*
X0040947Y0140155D02*
X0046941Y0140155D01*
X0046343Y0139556D02*
X0040348Y0139556D01*
X0039750Y0138958D02*
X0045744Y0138958D01*
X0045146Y0138359D02*
X0039151Y0138359D01*
X0038553Y0137761D02*
X0044547Y0137761D01*
X0043949Y0137162D02*
X0037954Y0137162D01*
X0037356Y0136564D02*
X0043350Y0136564D01*
X0042752Y0135965D02*
X0036757Y0135965D01*
X0036159Y0135367D02*
X0042153Y0135367D01*
X0041555Y0134768D02*
X0035560Y0134768D01*
X0034962Y0134170D02*
X0040956Y0134170D01*
X0040358Y0133571D02*
X0010837Y0133571D01*
X0010366Y0132972D02*
X0039759Y0132972D01*
X0039161Y0132374D02*
X0009767Y0132374D01*
X0009004Y0131775D02*
X0038562Y0131775D01*
X0037964Y0131177D02*
X0008154Y0131177D01*
X0009415Y0130578D02*
X0037365Y0130578D01*
X0036767Y0129980D02*
X0010013Y0129980D01*
X0010612Y0129381D02*
X0036168Y0129381D01*
X0035570Y0128783D02*
X0010939Y0128783D01*
X0011013Y0123995D02*
X0077084Y0123995D01*
X0076836Y0123396D02*
X0010765Y0123396D01*
X0010191Y0122798D02*
X0076746Y0122798D01*
X0076746Y0122199D02*
X0009593Y0122199D01*
X0008583Y0121601D02*
X0076746Y0121601D01*
X0076971Y0121002D02*
X0008575Y0121002D01*
X0009590Y0120404D02*
X0077219Y0120404D01*
X0077605Y0119805D02*
X0010188Y0119805D01*
X0010764Y0119207D02*
X0078204Y0119207D01*
X0079197Y0118608D02*
X0011012Y0118608D01*
X0011260Y0118010D02*
X0188919Y0118010D01*
X0189167Y0118608D02*
X0117695Y0118608D01*
X0118368Y0118887D02*
X0116861Y0118263D01*
X0110030Y0118263D01*
X0108523Y0118887D01*
X0107370Y0120041D01*
X0106746Y0121547D01*
X0106746Y0123179D01*
X0107370Y0124685D01*
X0108523Y0125839D01*
X0110030Y0126463D01*
X0116861Y0126463D01*
X0118368Y0125839D01*
X0119521Y0124685D01*
X0120146Y0123179D01*
X0120146Y0121547D01*
X0119521Y0120041D01*
X0118368Y0118887D01*
X0118688Y0119207D02*
X0189415Y0119207D01*
X0189991Y0119805D02*
X0119286Y0119805D01*
X0119672Y0120404D02*
X0190589Y0120404D01*
X0191603Y0121002D02*
X0119920Y0121002D01*
X0120146Y0121601D02*
X0191596Y0121601D01*
X0190586Y0122199D02*
X0120146Y0122199D01*
X0120146Y0122798D02*
X0189988Y0122798D01*
X0189414Y0123396D02*
X0120055Y0123396D01*
X0119808Y0123995D02*
X0189166Y0123995D01*
X0188918Y0124593D02*
X0119560Y0124593D01*
X0119015Y0125192D02*
X0188670Y0125192D01*
X0188639Y0125790D02*
X0118417Y0125790D01*
X0109851Y0126389D02*
X0087040Y0126389D01*
X0088417Y0125790D02*
X0108475Y0125790D01*
X0107876Y0125192D02*
X0089015Y0125192D01*
X0089560Y0124593D02*
X0107332Y0124593D01*
X0107084Y0123995D02*
X0089808Y0123995D01*
X0090055Y0123396D02*
X0106836Y0123396D01*
X0106746Y0122798D02*
X0090146Y0122798D01*
X0090146Y0122199D02*
X0106746Y0122199D01*
X0106746Y0121601D02*
X0090146Y0121601D01*
X0089920Y0121002D02*
X0106971Y0121002D01*
X0107219Y0120404D02*
X0089672Y0120404D01*
X0089286Y0119805D02*
X0107605Y0119805D01*
X0108204Y0119207D02*
X0088688Y0119207D01*
X0087695Y0118608D02*
X0109197Y0118608D01*
X0110030Y0116463D02*
X0108523Y0115839D01*
X0107370Y0114685D01*
X0106746Y0113179D01*
X0106746Y0111547D01*
X0107370Y0110041D01*
X0108523Y0108887D01*
X0110030Y0108263D01*
X0114293Y0108263D01*
X0116093Y0106463D01*
X0110030Y0106463D01*
X0108523Y0105839D01*
X0107370Y0104685D01*
X0106746Y0103179D01*
X0106746Y0101547D01*
X0107370Y0100041D01*
X0108523Y0098887D01*
X0110030Y0098263D01*
X0114293Y0098263D01*
X0116093Y0096463D01*
X0110030Y0096463D01*
X0108523Y0095839D01*
X0107370Y0094685D01*
X0106746Y0093179D01*
X0106746Y0091547D01*
X0107370Y0090041D01*
X0108523Y0088887D01*
X0110030Y0088263D01*
X0116861Y0088263D01*
X0118368Y0088887D01*
X0119521Y0090041D01*
X0120146Y0091547D01*
X0120146Y0092410D01*
X0154039Y0058517D01*
X0154039Y0040444D01*
X0153975Y0040380D01*
X0153550Y0039355D01*
X0153550Y0038245D01*
X0153975Y0037220D01*
X0154760Y0036436D01*
X0155570Y0036100D01*
X0092961Y0036100D01*
X0089271Y0039790D01*
X0089521Y0040041D01*
X0090146Y0041547D01*
X0090146Y0043179D01*
X0089521Y0044685D01*
X0088368Y0045839D01*
X0086861Y0046463D01*
X0080030Y0046463D01*
X0078523Y0045839D01*
X0077370Y0044685D01*
X0076746Y0043179D01*
X0076746Y0041547D01*
X0077370Y0040041D01*
X0078523Y0038887D01*
X0080030Y0038263D01*
X0084293Y0038263D01*
X0091056Y0031500D01*
X0159737Y0031500D01*
X0159491Y0031254D01*
X0159067Y0030620D01*
X0158775Y0029914D01*
X0158626Y0029166D01*
X0158626Y0029084D01*
X0162201Y0029084D01*
X0162201Y0028484D01*
X0158626Y0028484D01*
X0158626Y0028403D01*
X0158775Y0027654D01*
X0159067Y0026949D01*
X0159491Y0026314D01*
X0160029Y0025776D01*
X0159046Y0024793D01*
X0158426Y0023296D01*
X0158426Y0021674D01*
X0159046Y0020177D01*
X0159888Y0019335D01*
X0159046Y0018494D01*
X0158426Y0016996D01*
X0158426Y0015375D01*
X0159046Y0013878D01*
X0160193Y0012731D01*
X0161690Y0012111D01*
X0163311Y0012111D01*
X0164809Y0012731D01*
X0165955Y0013878D01*
X0166528Y0015261D01*
X0168036Y0015261D01*
X0169533Y0015881D01*
X0170680Y0017027D01*
X0171300Y0018525D01*
X0171300Y0020146D01*
X0171098Y0020634D01*
X0172153Y0021688D01*
X0173500Y0023036D01*
X0173500Y0055561D01*
X0119271Y0109790D01*
X0119521Y0110041D01*
X0120146Y0111547D01*
X0120146Y0113179D01*
X0119521Y0114685D01*
X0118368Y0115839D01*
X0116861Y0116463D01*
X0110030Y0116463D01*
X0109429Y0116214D02*
X0087462Y0116214D01*
X0086861Y0116463D02*
X0088368Y0115839D01*
X0089521Y0114685D01*
X0090146Y0113179D01*
X0090146Y0111547D01*
X0089521Y0110041D01*
X0088368Y0108887D01*
X0086861Y0108263D01*
X0080030Y0108263D01*
X0078523Y0108887D01*
X0077370Y0110041D01*
X0076746Y0111547D01*
X0076746Y0113179D01*
X0077370Y0114685D01*
X0078523Y0115839D01*
X0080030Y0116463D01*
X0086861Y0116463D01*
X0088591Y0115616D02*
X0108300Y0115616D01*
X0107702Y0115017D02*
X0089190Y0115017D01*
X0089632Y0114419D02*
X0107259Y0114419D01*
X0107011Y0113820D02*
X0089880Y0113820D01*
X0090128Y0113222D02*
X0106764Y0113222D01*
X0106746Y0112623D02*
X0090146Y0112623D01*
X0090146Y0112025D02*
X0106746Y0112025D01*
X0106796Y0111426D02*
X0090095Y0111426D01*
X0089847Y0110828D02*
X0107044Y0110828D01*
X0107292Y0110229D02*
X0089600Y0110229D01*
X0089111Y0109631D02*
X0107780Y0109631D01*
X0108378Y0109032D02*
X0088513Y0109032D01*
X0087273Y0108434D02*
X0109618Y0108434D01*
X0109008Y0106039D02*
X0087361Y0106039D01*
X0087183Y0106113D02*
X0086430Y0106263D01*
X0083746Y0106263D01*
X0083746Y0102663D01*
X0089946Y0102663D01*
X0089946Y0102747D01*
X0089796Y0103501D01*
X0089502Y0104210D01*
X0089075Y0104849D01*
X0088532Y0105392D01*
X0087893Y0105819D01*
X0087183Y0106113D01*
X0088459Y0105441D02*
X0108125Y0105441D01*
X0107527Y0104842D02*
X0089079Y0104842D01*
X0089479Y0104244D02*
X0107187Y0104244D01*
X0106939Y0103645D02*
X0089736Y0103645D01*
X0089886Y0103047D02*
X0106746Y0103047D01*
X0106746Y0102448D02*
X0083746Y0102448D01*
X0083746Y0102663D02*
X0083746Y0102063D01*
X0089946Y0102063D01*
X0089946Y0101979D01*
X0089796Y0101225D01*
X0089502Y0100516D01*
X0089075Y0099877D01*
X0088532Y0099334D01*
X0087893Y0098907D01*
X0087183Y0098613D01*
X0086430Y0098463D01*
X0083746Y0098463D01*
X0083746Y0102063D01*
X0083146Y0102063D01*
X0083146Y0098463D01*
X0080462Y0098463D01*
X0079708Y0098613D01*
X0078998Y0098907D01*
X0078360Y0099334D01*
X0077816Y0099877D01*
X0077390Y0100516D01*
X0077096Y0101225D01*
X0076946Y0101979D01*
X0076946Y0102063D01*
X0083146Y0102063D01*
X0083146Y0102663D01*
X0083146Y0106263D01*
X0080462Y0106263D01*
X0079708Y0106113D01*
X0078998Y0105819D01*
X0078360Y0105392D01*
X0077816Y0104849D01*
X0077390Y0104210D01*
X0077096Y0103501D01*
X0076946Y0102747D01*
X0076946Y0102663D01*
X0083146Y0102663D01*
X0083746Y0102663D01*
X0083746Y0103047D02*
X0083146Y0103047D01*
X0083146Y0103645D02*
X0083746Y0103645D01*
X0083746Y0104244D02*
X0083146Y0104244D01*
X0083146Y0104842D02*
X0083746Y0104842D01*
X0083746Y0105441D02*
X0083146Y0105441D01*
X0083146Y0106039D02*
X0083746Y0106039D01*
X0083146Y0102448D02*
X0074827Y0102448D01*
X0074827Y0101850D02*
X0076971Y0101850D01*
X0077090Y0101251D02*
X0074796Y0101251D01*
X0074548Y0100653D02*
X0077333Y0100653D01*
X0077698Y0100054D02*
X0074300Y0100054D01*
X0074052Y0099456D02*
X0078237Y0099456D01*
X0079118Y0098857D02*
X0073478Y0098857D01*
X0072880Y0098259D02*
X0114297Y0098259D01*
X0114896Y0097660D02*
X0071869Y0097660D01*
X0071336Y0097062D02*
X0115494Y0097062D01*
X0116093Y0096463D02*
X0072485Y0096463D01*
X0073193Y0095865D02*
X0078586Y0095865D01*
X0078523Y0095839D02*
X0077370Y0094685D01*
X0076746Y0093179D01*
X0076746Y0091547D01*
X0077370Y0090041D01*
X0078523Y0088887D01*
X0080030Y0088263D01*
X0086861Y0088263D01*
X0088368Y0088887D01*
X0089521Y0090041D01*
X0090146Y0091547D01*
X0090146Y0093179D01*
X0089521Y0094685D01*
X0088368Y0095839D01*
X0086861Y0096463D01*
X0080030Y0096463D01*
X0078523Y0095839D01*
X0077951Y0095266D02*
X0073695Y0095266D01*
X0074062Y0094668D02*
X0077363Y0094668D01*
X0077115Y0094069D02*
X0074329Y0094069D01*
X0074513Y0093471D02*
X0076867Y0093471D01*
X0076746Y0092872D02*
X0074608Y0092872D01*
X0074581Y0091675D02*
X0076746Y0091675D01*
X0076746Y0092274D02*
X0069927Y0092274D01*
X0069327Y0092274D02*
X0013618Y0092274D01*
X0013020Y0092872D02*
X0064646Y0092872D01*
X0064740Y0093471D02*
X0012421Y0093471D01*
X0011823Y0094069D02*
X0064925Y0094069D01*
X0066061Y0095865D02*
X0011539Y0095865D01*
X0011539Y0096463D02*
X0066768Y0096463D01*
X0067918Y0097062D02*
X0011539Y0097062D01*
X0011404Y0097660D02*
X0027433Y0097660D01*
X0027814Y0097279D02*
X0031211Y0097279D01*
X0033613Y0099680D01*
X0033613Y0103077D01*
X0031211Y0105479D01*
X0027814Y0105479D01*
X0025413Y0103077D01*
X0025413Y0099680D01*
X0027814Y0097279D01*
X0026834Y0098259D02*
X0011156Y0098259D01*
X0010909Y0098857D02*
X0026236Y0098857D01*
X0025637Y0099456D02*
X0010537Y0099456D01*
X0009939Y0100054D02*
X0025413Y0100054D01*
X0025413Y0100653D02*
X0009340Y0100653D01*
X0009184Y0101850D02*
X0025413Y0101850D01*
X0025413Y0102448D02*
X0009842Y0102448D01*
X0010440Y0103047D02*
X0025413Y0103047D01*
X0025981Y0103645D02*
X0010868Y0103645D01*
X0011116Y0104244D02*
X0026580Y0104244D01*
X0027178Y0104842D02*
X0011364Y0104842D01*
X0011539Y0105441D02*
X0027777Y0105441D01*
X0031249Y0105441D02*
X0065354Y0105441D01*
X0065027Y0104842D02*
X0057308Y0104842D01*
X0056892Y0105259D02*
X0055576Y0105259D01*
X0055576Y0101659D01*
X0054976Y0101659D01*
X0054976Y0101059D01*
X0051376Y0101059D01*
X0051376Y0099744D01*
X0053661Y0097459D01*
X0054976Y0097459D01*
X0054976Y0101059D01*
X0055576Y0101059D01*
X0055576Y0097459D01*
X0056892Y0097459D01*
X0059176Y0099744D01*
X0059176Y0101059D01*
X0055576Y0101059D01*
X0055576Y0101659D01*
X0059176Y0101659D01*
X0059176Y0102974D01*
X0056892Y0105259D01*
X0055576Y0104842D02*
X0054976Y0104842D01*
X0054976Y0105259D02*
X0053661Y0105259D01*
X0051376Y0102974D01*
X0051376Y0101659D01*
X0054976Y0101659D01*
X0054976Y0105259D01*
X0054976Y0104244D02*
X0055576Y0104244D01*
X0055576Y0103645D02*
X0054976Y0103645D01*
X0054976Y0103047D02*
X0055576Y0103047D01*
X0055576Y0102448D02*
X0054976Y0102448D01*
X0054976Y0101850D02*
X0055576Y0101850D01*
X0055576Y0101251D02*
X0064457Y0101251D01*
X0064427Y0101850D02*
X0059176Y0101850D01*
X0059176Y0102448D02*
X0064427Y0102448D01*
X0064427Y0103047D02*
X0059104Y0103047D01*
X0058505Y0103645D02*
X0064531Y0103645D01*
X0064779Y0104244D02*
X0057907Y0104244D01*
X0059176Y0100653D02*
X0064705Y0100653D01*
X0064953Y0100054D02*
X0059176Y0100054D01*
X0058889Y0099456D02*
X0065201Y0099456D01*
X0065775Y0098857D02*
X0058290Y0098857D01*
X0057692Y0098259D02*
X0066374Y0098259D01*
X0067384Y0097660D02*
X0057093Y0097660D01*
X0055576Y0097660D02*
X0054976Y0097660D01*
X0054976Y0098259D02*
X0055576Y0098259D01*
X0055576Y0098857D02*
X0054976Y0098857D01*
X0054976Y0099456D02*
X0055576Y0099456D01*
X0055576Y0100054D02*
X0054976Y0100054D01*
X0054976Y0100653D02*
X0055576Y0100653D01*
X0054976Y0101251D02*
X0042250Y0101251D01*
X0042250Y0101098D02*
X0042250Y0101698D01*
X0045850Y0101698D01*
X0045850Y0103014D01*
X0043565Y0105298D01*
X0042250Y0105298D01*
X0042250Y0101698D01*
X0041650Y0101698D01*
X0041650Y0101098D01*
X0042250Y0101098D01*
X0045850Y0101098D01*
X0045850Y0099783D01*
X0043565Y0097498D01*
X0042250Y0097498D01*
X0042250Y0101098D01*
X0042250Y0100653D02*
X0041650Y0100653D01*
X0041650Y0101098D02*
X0041650Y0097498D01*
X0040334Y0097498D01*
X0038050Y0099783D01*
X0038050Y0101098D01*
X0041650Y0101098D01*
X0041650Y0101251D02*
X0033613Y0101251D01*
X0033613Y0100653D02*
X0038050Y0100653D01*
X0038050Y0100054D02*
X0033613Y0100054D01*
X0033388Y0099456D02*
X0038377Y0099456D01*
X0038975Y0098857D02*
X0032789Y0098857D01*
X0032191Y0098259D02*
X0039574Y0098259D01*
X0040172Y0097660D02*
X0031592Y0097660D01*
X0033613Y0101850D02*
X0038050Y0101850D01*
X0038050Y0101698D02*
X0038050Y0103014D01*
X0040334Y0105298D01*
X0041650Y0105298D01*
X0041650Y0101698D01*
X0038050Y0101698D01*
X0038050Y0102448D02*
X0033613Y0102448D01*
X0033613Y0103047D02*
X0038083Y0103047D01*
X0038681Y0103645D02*
X0033044Y0103645D01*
X0032446Y0104244D02*
X0039280Y0104244D01*
X0039878Y0104842D02*
X0031847Y0104842D01*
X0025413Y0101251D02*
X0007974Y0101251D01*
X0011539Y0106039D02*
X0065952Y0106039D01*
X0066551Y0106638D02*
X0011539Y0106638D01*
X0011539Y0107237D02*
X0067812Y0107237D01*
X0071442Y0107237D02*
X0115319Y0107237D01*
X0114721Y0107835D02*
X0011332Y0107835D01*
X0011084Y0108434D02*
X0079618Y0108434D01*
X0078378Y0109032D02*
X0010836Y0109032D01*
X0010363Y0109631D02*
X0077780Y0109631D01*
X0077292Y0110229D02*
X0009764Y0110229D01*
X0008997Y0110828D02*
X0077044Y0110828D01*
X0076796Y0111426D02*
X0008161Y0111426D01*
X0009418Y0112025D02*
X0076746Y0112025D01*
X0076746Y0112623D02*
X0010016Y0112623D01*
X0010615Y0113222D02*
X0076764Y0113222D01*
X0077011Y0113820D02*
X0010941Y0113820D01*
X0011189Y0114419D02*
X0077259Y0114419D01*
X0077702Y0115017D02*
X0011436Y0115017D01*
X0011539Y0115616D02*
X0078300Y0115616D01*
X0079429Y0116214D02*
X0011539Y0116214D01*
X0011539Y0116813D02*
X0188639Y0116813D01*
X0188639Y0116214D02*
X0117462Y0116214D01*
X0118591Y0115616D02*
X0145234Y0115616D01*
X0145661Y0116043D02*
X0143376Y0113758D01*
X0143376Y0112442D01*
X0146976Y0112442D01*
X0146976Y0111843D01*
X0143376Y0111843D01*
X0143376Y0110527D01*
X0145661Y0108243D01*
X0146976Y0108243D01*
X0146976Y0111842D01*
X0147576Y0111842D01*
X0147576Y0108243D01*
X0148892Y0108243D01*
X0151176Y0110527D01*
X0151176Y0111843D01*
X0147576Y0111843D01*
X0147576Y0112442D01*
X0151176Y0112442D01*
X0151176Y0113758D01*
X0148892Y0116043D01*
X0147576Y0116043D01*
X0147576Y0112443D01*
X0146976Y0112443D01*
X0146976Y0116043D01*
X0145661Y0116043D01*
X0146976Y0115616D02*
X0147576Y0115616D01*
X0147576Y0115017D02*
X0146976Y0115017D01*
X0146976Y0114419D02*
X0147576Y0114419D01*
X0147576Y0113820D02*
X0146976Y0113820D01*
X0146976Y0113222D02*
X0147576Y0113222D01*
X0147576Y0112623D02*
X0146976Y0112623D01*
X0146976Y0112025D02*
X0120146Y0112025D01*
X0120146Y0112623D02*
X0143376Y0112623D01*
X0143376Y0113222D02*
X0120128Y0113222D01*
X0119880Y0113820D02*
X0143439Y0113820D01*
X0144037Y0114419D02*
X0119632Y0114419D01*
X0119190Y0115017D02*
X0144636Y0115017D01*
X0147576Y0112025D02*
X0190761Y0112025D01*
X0190162Y0112623D02*
X0151176Y0112623D01*
X0151176Y0113222D02*
X0189564Y0113222D01*
X0189238Y0113820D02*
X0151114Y0113820D01*
X0150516Y0114419D02*
X0188990Y0114419D01*
X0188742Y0115017D02*
X0149917Y0115017D01*
X0149319Y0115616D02*
X0188639Y0115616D01*
X0188671Y0117411D02*
X0011508Y0117411D01*
X0010867Y0138958D02*
X0033244Y0138958D01*
X0033843Y0139556D02*
X0010437Y0139556D01*
X0009839Y0140155D02*
X0034441Y0140155D01*
X0035040Y0140753D02*
X0009177Y0140753D01*
X0007732Y0141352D02*
X0035638Y0141352D01*
X0036237Y0141950D02*
X0007647Y0141950D01*
X0009092Y0142549D02*
X0036835Y0142549D01*
X0037434Y0143147D02*
X0009930Y0143147D01*
X0010529Y0143746D02*
X0038032Y0143746D01*
X0038631Y0144344D02*
X0011032Y0144344D01*
X0011280Y0144943D02*
X0039229Y0144943D01*
X0039828Y0145541D02*
X0011528Y0145541D01*
X0011756Y0146140D02*
X0040426Y0146140D01*
X0041025Y0146738D02*
X0011756Y0146738D01*
X0011756Y0147337D02*
X0041623Y0147337D01*
X0042222Y0147935D02*
X0011756Y0147935D01*
X0011602Y0148534D02*
X0042820Y0148534D01*
X0043419Y0149132D02*
X0011354Y0149132D01*
X0011106Y0149731D02*
X0044017Y0149731D01*
X0044616Y0150329D02*
X0010707Y0150329D01*
X0010109Y0150928D02*
X0045215Y0150928D01*
X0045813Y0151526D02*
X0009510Y0151526D01*
X0009506Y0152723D02*
X0047010Y0152723D01*
X0046412Y0152125D02*
X0008078Y0152125D01*
X0010105Y0153322D02*
X0047609Y0153322D01*
X0048207Y0153920D02*
X0010703Y0153920D01*
X0011104Y0154519D02*
X0048806Y0154519D01*
X0049404Y0155117D02*
X0011352Y0155117D01*
X0011600Y0155716D02*
X0050003Y0155716D01*
X0050601Y0156314D02*
X0011756Y0156314D01*
X0011756Y0156913D02*
X0051200Y0156913D01*
X0051798Y0157511D02*
X0011756Y0157511D01*
X0011756Y0158110D02*
X0052397Y0158110D01*
X0052995Y0158708D02*
X0011529Y0158708D01*
X0011281Y0159307D02*
X0053594Y0159307D01*
X0054192Y0159905D02*
X0011033Y0159905D01*
X0010533Y0160504D02*
X0054791Y0160504D01*
X0055389Y0161103D02*
X0009934Y0161103D01*
X0009101Y0161701D02*
X0055988Y0161701D01*
X0056586Y0162300D02*
X0007880Y0162300D01*
X0009242Y0162898D02*
X0057185Y0162898D01*
X0057783Y0163497D02*
X0009997Y0163497D01*
X0010534Y0164095D02*
X0058382Y0164095D01*
X0063023Y0149731D02*
X0077680Y0149731D01*
X0078278Y0149132D02*
X0062424Y0149132D01*
X0061826Y0148534D02*
X0079376Y0148534D01*
X0088063Y0135965D02*
X0108828Y0135965D01*
X0108051Y0135367D02*
X0088840Y0135367D01*
X0089439Y0134768D02*
X0107452Y0134768D01*
X0107156Y0134170D02*
X0089735Y0134170D01*
X0089983Y0133571D02*
X0106908Y0133571D01*
X0106746Y0132972D02*
X0090146Y0132972D01*
X0090146Y0132374D02*
X0106746Y0132374D01*
X0106746Y0131775D02*
X0090146Y0131775D01*
X0089992Y0131177D02*
X0106899Y0131177D01*
X0107147Y0130578D02*
X0089744Y0130578D01*
X0089461Y0129980D02*
X0107430Y0129980D01*
X0108029Y0129381D02*
X0088862Y0129381D01*
X0088116Y0128783D02*
X0108775Y0128783D01*
X0117093Y0138359D02*
X0189064Y0138359D01*
X0189312Y0138958D02*
X0118439Y0138958D01*
X0119037Y0139556D02*
X0189742Y0139556D01*
X0190340Y0140155D02*
X0119569Y0140155D01*
X0119817Y0140753D02*
X0191002Y0140753D01*
X0192447Y0141352D02*
X0120065Y0141352D01*
X0120146Y0141950D02*
X0196690Y0141950D01*
X0196690Y0141352D02*
X0195232Y0141352D01*
X0196677Y0140753D02*
X0196690Y0140753D01*
X0196690Y0142549D02*
X0120146Y0142549D01*
X0120146Y0143147D02*
X0196690Y0143147D01*
X0196690Y0143746D02*
X0119911Y0143746D01*
X0119663Y0144344D02*
X0196690Y0144344D01*
X0196690Y0144943D02*
X0119264Y0144943D01*
X0118666Y0145541D02*
X0196690Y0145541D01*
X0196690Y0146140D02*
X0117642Y0146140D01*
X0113746Y0158708D02*
X0113146Y0158708D01*
X0113146Y0159307D02*
X0113746Y0159307D01*
X0113746Y0159905D02*
X0113146Y0159905D01*
X0113146Y0160504D02*
X0113746Y0160504D01*
X0113746Y0161103D02*
X0113146Y0161103D01*
X0113146Y0162898D02*
X0113746Y0162898D01*
X0113746Y0163497D02*
X0113146Y0163497D01*
X0113146Y0164095D02*
X0113746Y0164095D01*
X0113746Y0164694D02*
X0113146Y0164694D01*
X0113146Y0165292D02*
X0113746Y0165292D01*
X0113746Y0165891D02*
X0113146Y0165891D01*
X0120095Y0111426D02*
X0143376Y0111426D01*
X0143376Y0110828D02*
X0119847Y0110828D01*
X0119600Y0110229D02*
X0143674Y0110229D01*
X0144273Y0109631D02*
X0119431Y0109631D01*
X0120029Y0109032D02*
X0144871Y0109032D01*
X0145470Y0108434D02*
X0120628Y0108434D01*
X0121226Y0107835D02*
X0188847Y0107835D01*
X0188639Y0107237D02*
X0121825Y0107237D01*
X0122423Y0106638D02*
X0188639Y0106638D01*
X0188639Y0106039D02*
X0123022Y0106039D01*
X0123620Y0105441D02*
X0188639Y0105441D01*
X0188815Y0104842D02*
X0124219Y0104842D01*
X0124817Y0104244D02*
X0189063Y0104244D01*
X0189310Y0103645D02*
X0125416Y0103645D01*
X0126014Y0103047D02*
X0189739Y0103047D01*
X0190337Y0102448D02*
X0126613Y0102448D01*
X0127211Y0101850D02*
X0190995Y0101850D01*
X0190838Y0100653D02*
X0128408Y0100653D01*
X0127810Y0101251D02*
X0192205Y0101251D01*
X0190240Y0100054D02*
X0129007Y0100054D01*
X0129605Y0099456D02*
X0189641Y0099456D01*
X0189270Y0098857D02*
X0130204Y0098857D01*
X0130802Y0098259D02*
X0189022Y0098259D01*
X0188774Y0097660D02*
X0131401Y0097660D01*
X0132000Y0097062D02*
X0188639Y0097062D01*
X0188639Y0095266D02*
X0189431Y0093354D01*
X0190894Y0091892D01*
X0192322Y0091300D01*
X0190894Y0090708D01*
X0189431Y0089246D01*
X0188639Y0087334D01*
X0188639Y0086887D02*
X0142174Y0086887D01*
X0142773Y0086289D02*
X0188639Y0086289D01*
X0188639Y0085690D02*
X0143371Y0085690D01*
X0143970Y0085092D02*
X0188711Y0085092D01*
X0188959Y0084493D02*
X0144568Y0084493D01*
X0145167Y0083895D02*
X0189207Y0083895D01*
X0189489Y0083296D02*
X0145765Y0083296D01*
X0146364Y0082698D02*
X0190088Y0082698D01*
X0190686Y0082099D02*
X0146962Y0082099D01*
X0147561Y0081501D02*
X0191838Y0081501D01*
X0191361Y0080902D02*
X0148159Y0080902D01*
X0148758Y0080303D02*
X0190489Y0080303D01*
X0189890Y0079705D02*
X0149356Y0079705D01*
X0149955Y0079106D02*
X0189373Y0079106D01*
X0189126Y0078508D02*
X0150553Y0078508D01*
X0151152Y0077909D02*
X0188878Y0077909D01*
X0188639Y0077311D02*
X0151750Y0077311D01*
X0152349Y0076712D02*
X0188639Y0076712D01*
X0188639Y0076114D02*
X0152947Y0076114D01*
X0153546Y0075515D02*
X0188639Y0075515D01*
X0188784Y0074917D02*
X0154144Y0074917D01*
X0154743Y0074318D02*
X0189032Y0074318D01*
X0189280Y0073720D02*
X0155341Y0073720D01*
X0155940Y0073121D02*
X0189664Y0073121D01*
X0190263Y0072523D02*
X0156538Y0072523D01*
X0157137Y0071924D02*
X0190861Y0071924D01*
X0191515Y0070727D02*
X0158334Y0070727D01*
X0158933Y0070129D02*
X0190603Y0070129D01*
X0190006Y0069530D02*
X0159531Y0069530D01*
X0160130Y0068932D02*
X0189571Y0068932D01*
X0189264Y0068333D02*
X0160728Y0068333D01*
X0161327Y0067735D02*
X0189048Y0067735D01*
X0188909Y0067136D02*
X0161925Y0067136D01*
X0162524Y0066538D02*
X0193539Y0066538D01*
X0193539Y0065939D02*
X0194139Y0065939D01*
X0194139Y0065341D02*
X0193539Y0065341D01*
X0193539Y0064742D02*
X0194139Y0064742D01*
X0194139Y0064144D02*
X0193539Y0064144D01*
X0193539Y0063545D02*
X0194139Y0063545D01*
X0194139Y0062947D02*
X0193539Y0062947D01*
X0193539Y0062348D02*
X0194139Y0062348D01*
X0194139Y0061750D02*
X0193539Y0061750D01*
X0191756Y0061750D02*
X0167312Y0061750D01*
X0166713Y0062348D02*
X0190772Y0062348D01*
X0190122Y0062947D02*
X0166115Y0062947D01*
X0165516Y0063545D02*
X0189661Y0063545D01*
X0189326Y0064144D02*
X0164918Y0064144D01*
X0164319Y0064742D02*
X0189088Y0064742D01*
X0188929Y0065341D02*
X0163721Y0065341D01*
X0163122Y0065939D02*
X0188839Y0065939D01*
X0192260Y0071326D02*
X0157736Y0071326D01*
X0150208Y0062348D02*
X0120146Y0062348D01*
X0120146Y0061750D02*
X0150806Y0061750D01*
X0151405Y0061151D02*
X0119981Y0061151D01*
X0120146Y0061547D02*
X0120146Y0063179D01*
X0119521Y0064685D01*
X0118368Y0065839D01*
X0116861Y0066463D01*
X0110030Y0066463D01*
X0108523Y0065839D01*
X0107370Y0064685D01*
X0106746Y0063179D01*
X0106746Y0061547D01*
X0107370Y0060041D01*
X0108523Y0058887D01*
X0110030Y0058263D01*
X0116861Y0058263D01*
X0118368Y0058887D01*
X0119521Y0060041D01*
X0120146Y0061547D01*
X0119734Y0060553D02*
X0152003Y0060553D01*
X0152602Y0059954D02*
X0119435Y0059954D01*
X0118837Y0059356D02*
X0153200Y0059356D01*
X0153799Y0058757D02*
X0118054Y0058757D01*
X0117102Y0056363D02*
X0154039Y0056363D01*
X0154039Y0055765D02*
X0118442Y0055765D01*
X0118368Y0055839D02*
X0116861Y0056463D01*
X0110030Y0056463D01*
X0108523Y0055839D01*
X0107370Y0054685D01*
X0106746Y0053179D01*
X0106746Y0051547D01*
X0107370Y0050041D01*
X0108523Y0048887D01*
X0110030Y0048263D01*
X0116861Y0048263D01*
X0118368Y0048887D01*
X0119521Y0050041D01*
X0120146Y0051547D01*
X0120146Y0053179D01*
X0119521Y0054685D01*
X0118368Y0055839D01*
X0119041Y0055166D02*
X0154039Y0055166D01*
X0154039Y0054568D02*
X0119570Y0054568D01*
X0119818Y0053969D02*
X0154039Y0053969D01*
X0154039Y0053370D02*
X0120066Y0053370D01*
X0120146Y0052772D02*
X0154039Y0052772D01*
X0154039Y0052173D02*
X0120146Y0052173D01*
X0120146Y0051575D02*
X0154039Y0051575D01*
X0154039Y0050976D02*
X0119909Y0050976D01*
X0119661Y0050378D02*
X0154039Y0050378D01*
X0154039Y0049779D02*
X0119260Y0049779D01*
X0118662Y0049181D02*
X0154039Y0049181D01*
X0154039Y0048582D02*
X0117632Y0048582D01*
X0116861Y0046463D02*
X0118368Y0045839D01*
X0119521Y0044685D01*
X0120146Y0043179D01*
X0120146Y0041547D01*
X0119521Y0040041D01*
X0118368Y0038887D01*
X0116861Y0038263D01*
X0110030Y0038263D01*
X0108523Y0038887D01*
X0107370Y0040041D01*
X0106746Y0041547D01*
X0106746Y0043179D01*
X0107370Y0044685D01*
X0108523Y0045839D01*
X0110030Y0046463D01*
X0116861Y0046463D01*
X0117524Y0046188D02*
X0154039Y0046188D01*
X0154039Y0045590D02*
X0118617Y0045590D01*
X0119216Y0044991D02*
X0154039Y0044991D01*
X0154039Y0044393D02*
X0119643Y0044393D01*
X0119891Y0043794D02*
X0154039Y0043794D01*
X0154039Y0043196D02*
X0120139Y0043196D01*
X0120146Y0042597D02*
X0154039Y0042597D01*
X0154039Y0041999D02*
X0120146Y0041999D01*
X0120085Y0041400D02*
X0154039Y0041400D01*
X0154039Y0040802D02*
X0119837Y0040802D01*
X0119589Y0040203D02*
X0153902Y0040203D01*
X0153654Y0039605D02*
X0119086Y0039605D01*
X0118487Y0039006D02*
X0153550Y0039006D01*
X0153550Y0038408D02*
X0117211Y0038408D01*
X0109681Y0038408D02*
X0090654Y0038408D01*
X0091252Y0037809D02*
X0153731Y0037809D01*
X0153984Y0037211D02*
X0091851Y0037211D01*
X0092449Y0036612D02*
X0154583Y0036612D01*
X0159472Y0031226D02*
X0063507Y0031226D01*
X0063507Y0030694D02*
X0063507Y0032010D01*
X0061223Y0034294D01*
X0059907Y0034294D01*
X0059907Y0030695D01*
X0059307Y0030695D01*
X0059307Y0034294D01*
X0057992Y0034294D01*
X0055707Y0032010D01*
X0055707Y0030694D01*
X0059307Y0030694D01*
X0059307Y0030094D01*
X0059907Y0030094D01*
X0059907Y0026494D01*
X0061223Y0026494D01*
X0063507Y0028779D01*
X0063507Y0030094D01*
X0059907Y0030094D01*
X0059907Y0030694D01*
X0063507Y0030694D01*
X0063507Y0030029D02*
X0158822Y0030029D01*
X0158679Y0029430D02*
X0063507Y0029430D01*
X0063507Y0028832D02*
X0162201Y0028832D01*
X0158660Y0028233D02*
X0062961Y0028233D01*
X0062363Y0027634D02*
X0158783Y0027634D01*
X0159031Y0027036D02*
X0061764Y0027036D01*
X0059907Y0027036D02*
X0059307Y0027036D01*
X0059307Y0026494D02*
X0059307Y0030094D01*
X0055707Y0030094D01*
X0055707Y0028779D01*
X0057992Y0026494D01*
X0059307Y0026494D01*
X0059307Y0027634D02*
X0059907Y0027634D01*
X0059907Y0028233D02*
X0059307Y0028233D01*
X0059307Y0028832D02*
X0059907Y0028832D01*
X0059907Y0029430D02*
X0059307Y0029430D01*
X0059307Y0030029D02*
X0059907Y0030029D01*
X0059907Y0030627D02*
X0159072Y0030627D01*
X0159409Y0026437D02*
X0041809Y0026437D01*
X0041809Y0025839D02*
X0159966Y0025839D01*
X0159494Y0025240D02*
X0095591Y0025240D01*
X0095534Y0025298D02*
X0094218Y0025298D01*
X0094218Y0021698D01*
X0097818Y0021698D01*
X0097818Y0023014D01*
X0095534Y0025298D01*
X0096190Y0024642D02*
X0111686Y0024642D01*
X0111811Y0024767D02*
X0109526Y0022482D01*
X0109526Y0021167D01*
X0113126Y0021167D01*
X0113126Y0024767D01*
X0111811Y0024767D01*
X0111087Y0024043D02*
X0096789Y0024043D01*
X0097387Y0023445D02*
X0110489Y0023445D01*
X0109890Y0022846D02*
X0097818Y0022846D01*
X0097818Y0022248D02*
X0109526Y0022248D01*
X0109526Y0021649D02*
X0094218Y0021649D01*
X0094218Y0021698D02*
X0094218Y0021098D01*
X0094218Y0017498D01*
X0095534Y0017498D01*
X0097818Y0019783D01*
X0097818Y0021098D01*
X0094218Y0021098D01*
X0093618Y0021098D01*
X0093618Y0017498D01*
X0092303Y0017498D01*
X0090018Y0019783D01*
X0090018Y0021098D01*
X0093618Y0021098D01*
X0093618Y0021698D01*
X0090018Y0021698D01*
X0090018Y0023014D01*
X0092303Y0025298D01*
X0093618Y0025298D01*
X0093618Y0021698D01*
X0094218Y0021698D01*
X0094218Y0022248D02*
X0093618Y0022248D01*
X0093618Y0022846D02*
X0094218Y0022846D01*
X0094218Y0023445D02*
X0093618Y0023445D01*
X0093618Y0024043D02*
X0094218Y0024043D01*
X0094218Y0024642D02*
X0093618Y0024642D01*
X0093618Y0025240D02*
X0094218Y0025240D01*
X0092245Y0025240D02*
X0078722Y0025240D01*
X0078698Y0025265D02*
X0077382Y0025265D01*
X0077382Y0021665D01*
X0076782Y0021665D01*
X0076782Y0025265D01*
X0075467Y0025265D01*
X0073182Y0022980D01*
X0073182Y0021665D01*
X0076782Y0021665D01*
X0076782Y0021065D01*
X0073182Y0021065D01*
X0073182Y0019749D01*
X0075467Y0017465D01*
X0076782Y0017465D01*
X0076782Y0021065D01*
X0077382Y0021065D01*
X0077382Y0021665D01*
X0080982Y0021665D01*
X0080982Y0022980D01*
X0078698Y0025265D01*
X0079320Y0024642D02*
X0091646Y0024642D01*
X0091048Y0024043D02*
X0079919Y0024043D01*
X0080517Y0023445D02*
X0090449Y0023445D01*
X0090018Y0022846D02*
X0080982Y0022846D01*
X0080982Y0022248D02*
X0090018Y0022248D01*
X0090018Y0021051D02*
X0080982Y0021051D01*
X0080982Y0021065D02*
X0077382Y0021065D01*
X0077382Y0017465D01*
X0078698Y0017465D01*
X0080982Y0019749D01*
X0080982Y0021065D01*
X0080982Y0020452D02*
X0090018Y0020452D01*
X0090018Y0019854D02*
X0080982Y0019854D01*
X0080488Y0019255D02*
X0090546Y0019255D01*
X0091144Y0018657D02*
X0079890Y0018657D01*
X0079291Y0018058D02*
X0091743Y0018058D01*
X0093618Y0018058D02*
X0094218Y0018058D01*
X0094218Y0018657D02*
X0093618Y0018657D01*
X0093618Y0019255D02*
X0094218Y0019255D01*
X0094218Y0019854D02*
X0093618Y0019854D01*
X0093618Y0020452D02*
X0094218Y0020452D01*
X0094218Y0021051D02*
X0093618Y0021051D01*
X0093618Y0021649D02*
X0077382Y0021649D01*
X0077382Y0021051D02*
X0076782Y0021051D01*
X0076782Y0021649D02*
X0041809Y0021649D01*
X0041809Y0021051D02*
X0073182Y0021051D01*
X0073182Y0020452D02*
X0041809Y0020452D01*
X0041809Y0020251D02*
X0041809Y0031017D01*
X0057576Y0046784D01*
X0057576Y0057861D01*
X0059039Y0059324D01*
X0059039Y0042944D01*
X0058975Y0042880D01*
X0058550Y0041855D01*
X0058550Y0040745D01*
X0058975Y0039720D01*
X0059760Y0038936D01*
X0060785Y0038511D01*
X0061894Y0038511D01*
X0062919Y0038936D01*
X0063704Y0039720D01*
X0064128Y0040745D01*
X0064128Y0041855D01*
X0063704Y0042880D01*
X0063639Y0042944D01*
X0063639Y0058347D01*
X0064803Y0059511D01*
X0064894Y0059511D01*
X0065919Y0059936D01*
X0066704Y0060720D01*
X0067128Y0061745D01*
X0067128Y0062855D01*
X0066704Y0063880D01*
X0065919Y0064664D01*
X0064894Y0065089D01*
X0063785Y0065089D01*
X0062760Y0064664D01*
X0061975Y0063880D01*
X0061550Y0062855D01*
X0061550Y0062764D01*
X0060387Y0061600D01*
X0059376Y0060590D01*
X0059376Y0063057D01*
X0056975Y0065459D01*
X0053578Y0065459D01*
X0051176Y0063057D01*
X0051176Y0059661D01*
X0052976Y0057861D01*
X0052976Y0048690D01*
X0037209Y0032922D01*
X0037209Y0020251D01*
X0035409Y0018451D01*
X0035409Y0015054D01*
X0037810Y0012653D01*
X0041207Y0012653D01*
X0043609Y0015054D01*
X0043609Y0018451D01*
X0041809Y0020251D01*
X0042206Y0019854D02*
X0073182Y0019854D01*
X0073676Y0019255D02*
X0042804Y0019255D01*
X0043403Y0018657D02*
X0074275Y0018657D01*
X0074873Y0018058D02*
X0043609Y0018058D01*
X0043609Y0017460D02*
X0097318Y0017460D01*
X0097318Y0018058D02*
X0096093Y0018058D01*
X0096692Y0018657D02*
X0097878Y0018657D01*
X0097318Y0018097D02*
X0099720Y0020498D01*
X0103116Y0020498D01*
X0105518Y0018097D01*
X0105518Y0014700D01*
X0103116Y0012298D01*
X0099720Y0012298D01*
X0097318Y0014700D01*
X0097318Y0018097D01*
X0097290Y0019255D02*
X0098477Y0019255D01*
X0099075Y0019854D02*
X0097818Y0019854D01*
X0097818Y0020452D02*
X0099674Y0020452D01*
X0097818Y0021051D02*
X0113126Y0021051D01*
X0113126Y0021167D02*
X0113126Y0020567D01*
X0109526Y0020567D01*
X0109526Y0019252D01*
X0111811Y0016967D01*
X0113126Y0016967D01*
X0113126Y0020567D01*
X0113726Y0020567D01*
X0113726Y0021167D01*
X0113126Y0021167D01*
X0113126Y0021649D02*
X0113726Y0021649D01*
X0113726Y0021167D02*
X0113726Y0024767D01*
X0115041Y0024767D01*
X0117326Y0022482D01*
X0117326Y0021167D01*
X0113726Y0021167D01*
X0113726Y0021051D02*
X0158684Y0021051D01*
X0158436Y0021649D02*
X0117326Y0021649D01*
X0117326Y0022248D02*
X0158426Y0022248D01*
X0158426Y0022846D02*
X0116962Y0022846D01*
X0116363Y0023445D02*
X0158488Y0023445D01*
X0158736Y0024043D02*
X0115765Y0024043D01*
X0115166Y0024642D02*
X0158984Y0024642D01*
X0158932Y0020452D02*
X0117326Y0020452D01*
X0117326Y0020567D02*
X0113726Y0020567D01*
X0113726Y0016967D01*
X0115041Y0016967D01*
X0117326Y0019252D01*
X0117326Y0020567D01*
X0117326Y0019854D02*
X0159369Y0019854D01*
X0159808Y0019255D02*
X0117326Y0019255D01*
X0116731Y0018657D02*
X0159209Y0018657D01*
X0158866Y0018058D02*
X0116133Y0018058D01*
X0115534Y0017460D02*
X0158618Y0017460D01*
X0158426Y0016861D02*
X0105518Y0016861D01*
X0105518Y0016263D02*
X0158426Y0016263D01*
X0158426Y0015664D02*
X0105518Y0015664D01*
X0105518Y0015066D02*
X0121303Y0015066D01*
X0121072Y0014970D02*
X0119815Y0013713D01*
X0119135Y0012071D01*
X0119135Y0010293D01*
X0119815Y0008651D01*
X0121072Y0007394D01*
X0122714Y0006713D01*
X0124492Y0006713D01*
X0126134Y0007394D01*
X0127391Y0008651D01*
X0127753Y0009524D01*
X0128023Y0008874D01*
X0129169Y0007727D01*
X0130667Y0007107D01*
X0132288Y0007107D01*
X0133785Y0007727D01*
X0134932Y0008874D01*
X0135414Y0010039D01*
X0135897Y0008874D01*
X0137043Y0007727D01*
X0138541Y0007107D01*
X0140162Y0007107D01*
X0141659Y0007727D01*
X0142806Y0008874D01*
X0143288Y0010039D01*
X0143771Y0008874D01*
X0144917Y0007727D01*
X0146415Y0007107D01*
X0148036Y0007107D01*
X0149533Y0007727D01*
X0150680Y0008874D01*
X0150949Y0009524D01*
X0151311Y0008651D01*
X0152568Y0007394D01*
X0154210Y0006713D01*
X0155988Y0006713D01*
X0157630Y0007394D01*
X0158887Y0008651D01*
X0159568Y0010293D01*
X0159568Y0012071D01*
X0158887Y0013713D01*
X0157630Y0014970D01*
X0155988Y0015650D01*
X0154210Y0015650D01*
X0152568Y0014970D01*
X0151311Y0013713D01*
X0150949Y0012839D01*
X0150680Y0013490D01*
X0149533Y0014636D01*
X0148036Y0015257D01*
X0146415Y0015257D01*
X0144917Y0014636D01*
X0143771Y0013490D01*
X0143288Y0012325D01*
X0142806Y0013490D01*
X0141659Y0014636D01*
X0140162Y0015257D01*
X0138541Y0015257D01*
X0137043Y0014636D01*
X0135897Y0013490D01*
X0135414Y0012325D01*
X0134932Y0013490D01*
X0133785Y0014636D01*
X0132288Y0015257D01*
X0130667Y0015257D01*
X0129169Y0014636D01*
X0128023Y0013490D01*
X0127753Y0012839D01*
X0127391Y0013713D01*
X0126134Y0014970D01*
X0124492Y0015650D01*
X0122714Y0015650D01*
X0121072Y0014970D01*
X0120569Y0014467D02*
X0115624Y0014467D01*
X0115124Y0014967D02*
X0111728Y0014967D01*
X0109326Y0012565D01*
X0109326Y0009169D01*
X0111728Y0006767D01*
X0115124Y0006767D01*
X0117526Y0009169D01*
X0117526Y0012565D01*
X0115124Y0014967D01*
X0116222Y0013869D02*
X0119971Y0013869D01*
X0119631Y0013270D02*
X0116821Y0013270D01*
X0117419Y0012672D02*
X0119384Y0012672D01*
X0119136Y0012073D02*
X0117526Y0012073D01*
X0117526Y0011475D02*
X0119135Y0011475D01*
X0119135Y0010876D02*
X0117526Y0010876D01*
X0117526Y0010278D02*
X0119141Y0010278D01*
X0119389Y0009679D02*
X0117526Y0009679D01*
X0117438Y0009081D02*
X0119637Y0009081D01*
X0119983Y0008482D02*
X0116839Y0008482D01*
X0116241Y0007884D02*
X0120582Y0007884D01*
X0121334Y0007285D02*
X0115642Y0007285D01*
X0111210Y0007285D02*
X0078801Y0007285D01*
X0078781Y0007265D02*
X0081182Y0009666D01*
X0081182Y0013063D01*
X0078781Y0015465D01*
X0075384Y0015465D01*
X0072982Y0013063D01*
X0072982Y0009666D01*
X0075384Y0007265D01*
X0078781Y0007265D01*
X0079400Y0007884D02*
X0091635Y0007884D01*
X0092220Y0007298D02*
X0089818Y0009700D01*
X0089818Y0013097D01*
X0092220Y0015498D01*
X0095616Y0015498D01*
X0098018Y0013097D01*
X0098018Y0009700D01*
X0095616Y0007298D01*
X0092220Y0007298D01*
X0091036Y0008482D02*
X0079998Y0008482D01*
X0080597Y0009081D02*
X0090438Y0009081D01*
X0089839Y0009679D02*
X0081182Y0009679D01*
X0081182Y0010278D02*
X0089818Y0010278D01*
X0089818Y0010876D02*
X0081182Y0010876D01*
X0081182Y0011475D02*
X0089818Y0011475D01*
X0089818Y0012073D02*
X0081182Y0012073D01*
X0081182Y0012672D02*
X0089818Y0012672D01*
X0089992Y0013270D02*
X0080975Y0013270D01*
X0080376Y0013869D02*
X0090590Y0013869D01*
X0091189Y0014467D02*
X0079778Y0014467D01*
X0079179Y0015066D02*
X0091787Y0015066D01*
X0096049Y0015066D02*
X0097318Y0015066D01*
X0097318Y0015664D02*
X0043609Y0015664D01*
X0043609Y0015066D02*
X0074985Y0015066D01*
X0074387Y0014467D02*
X0060488Y0014467D01*
X0060423Y0014494D02*
X0058792Y0014494D01*
X0057285Y0013870D01*
X0056131Y0012717D01*
X0055507Y0011210D01*
X0055507Y0009579D01*
X0056131Y0008072D01*
X0057285Y0006919D01*
X0058792Y0006294D01*
X0060423Y0006294D01*
X0061930Y0006919D01*
X0063083Y0008072D01*
X0063707Y0009579D01*
X0063707Y0011210D01*
X0063083Y0012717D01*
X0061930Y0013870D01*
X0060423Y0014494D01*
X0061931Y0013869D02*
X0073788Y0013869D01*
X0073190Y0013270D02*
X0062530Y0013270D01*
X0063102Y0012672D02*
X0072982Y0012672D01*
X0072982Y0012073D02*
X0063350Y0012073D01*
X0063597Y0011475D02*
X0072982Y0011475D01*
X0072982Y0010876D02*
X0063707Y0010876D01*
X0063707Y0010278D02*
X0072982Y0010278D01*
X0072982Y0009679D02*
X0063707Y0009679D01*
X0063501Y0009081D02*
X0073568Y0009081D01*
X0074166Y0008482D02*
X0063253Y0008482D01*
X0062894Y0007884D02*
X0074765Y0007884D01*
X0075363Y0007285D02*
X0062296Y0007285D01*
X0061369Y0006687D02*
X0175475Y0006687D01*
X0175469Y0007285D02*
X0157368Y0007285D01*
X0158120Y0007884D02*
X0175469Y0007884D01*
X0175469Y0008482D02*
X0158719Y0008482D01*
X0159066Y0009081D02*
X0175469Y0009081D01*
X0175531Y0009679D02*
X0159313Y0009679D01*
X0159561Y0010278D02*
X0175779Y0010278D01*
X0176027Y0010876D02*
X0159568Y0010876D01*
X0159568Y0011475D02*
X0176275Y0011475D01*
X0176523Y0012073D02*
X0159567Y0012073D01*
X0159319Y0012672D02*
X0160337Y0012672D01*
X0159654Y0013270D02*
X0159071Y0013270D01*
X0159055Y0013869D02*
X0158732Y0013869D01*
X0158802Y0014467D02*
X0158133Y0014467D01*
X0158554Y0015066D02*
X0157399Y0015066D01*
X0152799Y0015066D02*
X0148497Y0015066D01*
X0149702Y0014467D02*
X0152065Y0014467D01*
X0151467Y0013869D02*
X0150301Y0013869D01*
X0150771Y0013270D02*
X0151128Y0013270D01*
X0151133Y0009081D02*
X0150765Y0009081D01*
X0150288Y0008482D02*
X0151480Y0008482D01*
X0152078Y0007884D02*
X0149690Y0007884D01*
X0148466Y0007285D02*
X0152830Y0007285D01*
X0145985Y0007285D02*
X0140591Y0007285D01*
X0141816Y0007884D02*
X0144761Y0007884D01*
X0144162Y0008482D02*
X0142414Y0008482D01*
X0142891Y0009081D02*
X0143685Y0009081D01*
X0143437Y0009679D02*
X0143139Y0009679D01*
X0143145Y0012672D02*
X0143432Y0012672D01*
X0143680Y0013270D02*
X0142897Y0013270D01*
X0142427Y0013869D02*
X0144149Y0013869D01*
X0144748Y0014467D02*
X0141828Y0014467D01*
X0140623Y0015066D02*
X0145954Y0015066D01*
X0138080Y0015066D02*
X0132749Y0015066D01*
X0133954Y0014467D02*
X0136874Y0014467D01*
X0136275Y0013869D02*
X0134553Y0013869D01*
X0135023Y0013270D02*
X0135806Y0013270D01*
X0135558Y0012672D02*
X0135271Y0012672D01*
X0135265Y0009679D02*
X0135563Y0009679D01*
X0135811Y0009081D02*
X0135017Y0009081D01*
X0134540Y0008482D02*
X0136288Y0008482D01*
X0136887Y0007884D02*
X0133942Y0007884D01*
X0132717Y0007285D02*
X0138111Y0007285D01*
X0130237Y0007285D02*
X0125872Y0007285D01*
X0126624Y0007884D02*
X0129013Y0007884D01*
X0128414Y0008482D02*
X0127223Y0008482D01*
X0127569Y0009081D02*
X0127937Y0009081D01*
X0127932Y0013270D02*
X0127575Y0013270D01*
X0127236Y0013869D02*
X0128401Y0013869D01*
X0129000Y0014467D02*
X0126637Y0014467D01*
X0125903Y0015066D02*
X0130206Y0015066D01*
X0113726Y0017460D02*
X0113126Y0017460D01*
X0113126Y0018058D02*
X0113726Y0018058D01*
X0113726Y0018657D02*
X0113126Y0018657D01*
X0113126Y0019255D02*
X0113726Y0019255D01*
X0113726Y0019854D02*
X0113126Y0019854D01*
X0113126Y0020452D02*
X0113726Y0020452D01*
X0113726Y0022248D02*
X0113126Y0022248D01*
X0113126Y0022846D02*
X0113726Y0022846D01*
X0113726Y0023445D02*
X0113126Y0023445D01*
X0113126Y0024043D02*
X0113726Y0024043D01*
X0113726Y0024642D02*
X0113126Y0024642D01*
X0109526Y0020452D02*
X0103162Y0020452D01*
X0103761Y0019854D02*
X0109526Y0019854D01*
X0109526Y0019255D02*
X0104359Y0019255D01*
X0104958Y0018657D02*
X0110121Y0018657D01*
X0110719Y0018058D02*
X0105518Y0018058D01*
X0105518Y0017460D02*
X0111318Y0017460D01*
X0111228Y0014467D02*
X0105285Y0014467D01*
X0104687Y0013869D02*
X0110630Y0013869D01*
X0110031Y0013270D02*
X0104088Y0013270D01*
X0103490Y0012672D02*
X0109433Y0012672D01*
X0109326Y0012073D02*
X0098018Y0012073D01*
X0098018Y0011475D02*
X0109326Y0011475D01*
X0109326Y0010876D02*
X0098018Y0010876D01*
X0098018Y0010278D02*
X0109326Y0010278D01*
X0109326Y0009679D02*
X0097997Y0009679D01*
X0097399Y0009081D02*
X0109414Y0009081D01*
X0110012Y0008482D02*
X0096800Y0008482D01*
X0096202Y0007884D02*
X0110611Y0007884D01*
X0099347Y0012672D02*
X0098018Y0012672D01*
X0097845Y0013270D02*
X0098748Y0013270D01*
X0098150Y0013869D02*
X0097246Y0013869D01*
X0097551Y0014467D02*
X0096648Y0014467D01*
X0097318Y0016263D02*
X0043609Y0016263D01*
X0043609Y0016861D02*
X0097318Y0016861D01*
X0090732Y0031824D02*
X0063507Y0031824D01*
X0063094Y0032423D02*
X0090133Y0032423D01*
X0089535Y0033021D02*
X0062496Y0033021D01*
X0061897Y0033620D02*
X0088936Y0033620D01*
X0088338Y0034218D02*
X0061299Y0034218D01*
X0059907Y0034218D02*
X0059307Y0034218D01*
X0059307Y0033620D02*
X0059907Y0033620D01*
X0059907Y0033021D02*
X0059307Y0033021D01*
X0059307Y0032423D02*
X0059907Y0032423D01*
X0059907Y0031824D02*
X0059307Y0031824D01*
X0059307Y0031226D02*
X0059907Y0031226D01*
X0059307Y0030627D02*
X0041809Y0030627D01*
X0041809Y0030029D02*
X0055707Y0030029D01*
X0055707Y0029430D02*
X0041809Y0029430D01*
X0041809Y0028832D02*
X0055707Y0028832D01*
X0056253Y0028233D02*
X0041809Y0028233D01*
X0041809Y0027634D02*
X0056852Y0027634D01*
X0057450Y0027036D02*
X0041809Y0027036D01*
X0041809Y0025240D02*
X0075443Y0025240D01*
X0074844Y0024642D02*
X0041809Y0024642D01*
X0041809Y0024043D02*
X0074246Y0024043D01*
X0073647Y0023445D02*
X0041809Y0023445D01*
X0041809Y0022846D02*
X0073182Y0022846D01*
X0073182Y0022248D02*
X0041809Y0022248D01*
X0037209Y0022248D02*
X0023895Y0022248D01*
X0023895Y0022846D02*
X0037209Y0022846D01*
X0037209Y0023445D02*
X0023895Y0023445D01*
X0023895Y0024043D02*
X0037209Y0024043D01*
X0037209Y0024642D02*
X0023895Y0024642D01*
X0023895Y0025240D02*
X0037209Y0025240D01*
X0037209Y0025839D02*
X0023895Y0025839D01*
X0023895Y0026437D02*
X0037209Y0026437D01*
X0037209Y0027036D02*
X0023895Y0027036D01*
X0023927Y0027634D02*
X0037209Y0027634D01*
X0037209Y0028233D02*
X0024525Y0028233D01*
X0025124Y0028832D02*
X0037209Y0028832D01*
X0037209Y0029430D02*
X0025722Y0029430D01*
X0026321Y0030029D02*
X0037209Y0030029D01*
X0037209Y0030627D02*
X0026919Y0030627D01*
X0027518Y0031226D02*
X0037209Y0031226D01*
X0037209Y0031824D02*
X0028116Y0031824D01*
X0028715Y0032423D02*
X0037209Y0032423D01*
X0037308Y0033021D02*
X0029313Y0033021D01*
X0029912Y0033620D02*
X0037906Y0033620D01*
X0038505Y0034218D02*
X0030510Y0034218D01*
X0031109Y0034817D02*
X0039103Y0034817D01*
X0039702Y0035415D02*
X0031707Y0035415D01*
X0032306Y0036014D02*
X0040300Y0036014D01*
X0040899Y0036612D02*
X0032904Y0036612D01*
X0033503Y0037211D02*
X0041497Y0037211D01*
X0042096Y0037809D02*
X0034101Y0037809D01*
X0034700Y0038408D02*
X0042694Y0038408D01*
X0043293Y0039006D02*
X0035298Y0039006D01*
X0035897Y0039605D02*
X0043891Y0039605D01*
X0044490Y0040203D02*
X0036495Y0040203D01*
X0037094Y0040802D02*
X0045088Y0040802D01*
X0045687Y0041400D02*
X0037692Y0041400D01*
X0038291Y0041999D02*
X0046285Y0041999D01*
X0046884Y0042597D02*
X0038889Y0042597D01*
X0039488Y0043196D02*
X0047482Y0043196D01*
X0048081Y0043794D02*
X0040086Y0043794D01*
X0040685Y0044393D02*
X0048680Y0044393D01*
X0049278Y0044991D02*
X0041283Y0044991D01*
X0041882Y0045590D02*
X0049877Y0045590D01*
X0050475Y0046188D02*
X0042480Y0046188D01*
X0043079Y0046787D02*
X0051074Y0046787D01*
X0051672Y0047385D02*
X0043677Y0047385D01*
X0044250Y0047984D02*
X0052271Y0047984D01*
X0052869Y0048582D02*
X0044250Y0048582D01*
X0044250Y0049181D02*
X0052976Y0049181D01*
X0052976Y0049779D02*
X0044250Y0049779D01*
X0044250Y0050378D02*
X0052976Y0050378D01*
X0052976Y0050976D02*
X0044250Y0050976D01*
X0044250Y0051575D02*
X0052976Y0051575D01*
X0052976Y0052173D02*
X0044250Y0052173D01*
X0044250Y0052772D02*
X0052976Y0052772D01*
X0052976Y0053370D02*
X0044250Y0053370D01*
X0044250Y0053969D02*
X0052976Y0053969D01*
X0052976Y0054568D02*
X0044250Y0054568D01*
X0044250Y0055166D02*
X0052976Y0055166D01*
X0052976Y0055765D02*
X0044250Y0055765D01*
X0044250Y0056363D02*
X0052976Y0056363D01*
X0052976Y0056962D02*
X0044250Y0056962D01*
X0044250Y0057560D02*
X0052976Y0057560D01*
X0052679Y0058159D02*
X0044508Y0058159D01*
X0045107Y0058757D02*
X0052080Y0058757D01*
X0051482Y0059356D02*
X0045705Y0059356D01*
X0046050Y0059954D02*
X0051176Y0059954D01*
X0051176Y0060553D02*
X0046050Y0060553D01*
X0046050Y0061151D02*
X0051176Y0061151D01*
X0051176Y0061750D02*
X0046050Y0061750D01*
X0046050Y0062348D02*
X0051176Y0062348D01*
X0051176Y0062947D02*
X0046050Y0062947D01*
X0045601Y0063545D02*
X0051664Y0063545D01*
X0052263Y0064144D02*
X0045003Y0064144D01*
X0044404Y0064742D02*
X0052861Y0064742D01*
X0053460Y0065341D02*
X0043806Y0065341D01*
X0040094Y0065341D02*
X0031349Y0065341D01*
X0031211Y0065479D02*
X0027814Y0065479D01*
X0025413Y0063077D01*
X0025413Y0059680D01*
X0027814Y0057279D01*
X0031211Y0057279D01*
X0033613Y0059680D01*
X0033613Y0063077D01*
X0031211Y0065479D01*
X0031947Y0064742D02*
X0039495Y0064742D01*
X0038897Y0064144D02*
X0032546Y0064144D01*
X0033144Y0063545D02*
X0038298Y0063545D01*
X0037850Y0062947D02*
X0033613Y0062947D01*
X0033613Y0062348D02*
X0037850Y0062348D01*
X0037850Y0061750D02*
X0033613Y0061750D01*
X0033613Y0061151D02*
X0037850Y0061151D01*
X0037850Y0060553D02*
X0033613Y0060553D01*
X0033613Y0059954D02*
X0037850Y0059954D01*
X0038194Y0059356D02*
X0033288Y0059356D01*
X0032689Y0058757D02*
X0038793Y0058757D01*
X0039391Y0058159D02*
X0032091Y0058159D01*
X0031492Y0057560D02*
X0039650Y0057560D01*
X0039650Y0056962D02*
X0023930Y0056962D01*
X0023639Y0057560D02*
X0027533Y0057560D01*
X0026934Y0058159D02*
X0023639Y0058159D01*
X0023639Y0058757D02*
X0026336Y0058757D01*
X0025737Y0059356D02*
X0023639Y0059356D01*
X0023639Y0059954D02*
X0025413Y0059954D01*
X0025413Y0060553D02*
X0023639Y0060553D01*
X0023639Y0061151D02*
X0025413Y0061151D01*
X0025413Y0061750D02*
X0023639Y0061750D01*
X0023639Y0062348D02*
X0025413Y0062348D01*
X0025413Y0062947D02*
X0023639Y0062947D01*
X0023639Y0063545D02*
X0025881Y0063545D01*
X0026479Y0064144D02*
X0023639Y0064144D01*
X0023639Y0064742D02*
X0027078Y0064742D01*
X0027676Y0065341D02*
X0023639Y0065341D01*
X0023639Y0065939D02*
X0078766Y0065939D01*
X0078523Y0065839D02*
X0077370Y0064685D01*
X0076746Y0063179D01*
X0076746Y0061547D01*
X0077370Y0060041D01*
X0078523Y0058887D01*
X0080030Y0058263D01*
X0086861Y0058263D01*
X0088368Y0058887D01*
X0089521Y0060041D01*
X0090146Y0061547D01*
X0090146Y0063179D01*
X0089521Y0064685D01*
X0088368Y0065839D01*
X0086861Y0066463D01*
X0080030Y0066463D01*
X0078523Y0065839D01*
X0078025Y0065341D02*
X0057093Y0065341D01*
X0057691Y0064742D02*
X0062947Y0064742D01*
X0062239Y0064144D02*
X0058290Y0064144D01*
X0058889Y0063545D02*
X0061836Y0063545D01*
X0061588Y0062947D02*
X0059376Y0062947D01*
X0059376Y0062348D02*
X0061135Y0062348D01*
X0060536Y0061750D02*
X0059376Y0061750D01*
X0059376Y0061151D02*
X0059938Y0061151D01*
X0059039Y0058757D02*
X0058473Y0058757D01*
X0059039Y0058159D02*
X0057874Y0058159D01*
X0057576Y0057560D02*
X0059039Y0057560D01*
X0059039Y0056962D02*
X0057576Y0056962D01*
X0057576Y0056363D02*
X0059039Y0056363D01*
X0059039Y0055765D02*
X0057576Y0055765D01*
X0057576Y0055166D02*
X0059039Y0055166D01*
X0059039Y0054568D02*
X0057576Y0054568D01*
X0057576Y0053969D02*
X0059039Y0053969D01*
X0059039Y0053370D02*
X0057576Y0053370D01*
X0057576Y0052772D02*
X0059039Y0052772D01*
X0059039Y0052173D02*
X0057576Y0052173D01*
X0057576Y0051575D02*
X0059039Y0051575D01*
X0059039Y0050976D02*
X0057576Y0050976D01*
X0057576Y0050378D02*
X0059039Y0050378D01*
X0059039Y0049779D02*
X0057576Y0049779D01*
X0057576Y0049181D02*
X0059039Y0049181D01*
X0059039Y0048582D02*
X0057576Y0048582D01*
X0057576Y0047984D02*
X0059039Y0047984D01*
X0059039Y0047385D02*
X0057576Y0047385D01*
X0057576Y0046787D02*
X0059039Y0046787D01*
X0059039Y0046188D02*
X0056980Y0046188D01*
X0056382Y0045590D02*
X0059039Y0045590D01*
X0059039Y0044991D02*
X0055783Y0044991D01*
X0055185Y0044393D02*
X0059039Y0044393D01*
X0059039Y0043794D02*
X0054586Y0043794D01*
X0053988Y0043196D02*
X0059039Y0043196D01*
X0058858Y0042597D02*
X0053389Y0042597D01*
X0052791Y0041999D02*
X0058610Y0041999D01*
X0058550Y0041400D02*
X0052192Y0041400D01*
X0051594Y0040802D02*
X0058550Y0040802D01*
X0058775Y0040203D02*
X0050995Y0040203D01*
X0050397Y0039605D02*
X0059090Y0039605D01*
X0059689Y0039006D02*
X0049798Y0039006D01*
X0049200Y0038408D02*
X0079681Y0038408D01*
X0078404Y0039006D02*
X0071746Y0039006D01*
X0071282Y0038542D02*
X0073566Y0040826D01*
X0073566Y0042142D01*
X0069966Y0042142D01*
X0069966Y0042742D01*
X0069366Y0042742D01*
X0069366Y0046342D01*
X0068051Y0046342D01*
X0065766Y0044057D01*
X0065766Y0042742D01*
X0069366Y0042742D01*
X0069366Y0042142D01*
X0065766Y0042142D01*
X0065766Y0040826D01*
X0068051Y0038542D01*
X0069366Y0038542D01*
X0069366Y0042142D01*
X0069966Y0042142D01*
X0069966Y0038542D01*
X0071282Y0038542D01*
X0069966Y0039006D02*
X0069366Y0039006D01*
X0069366Y0039605D02*
X0069966Y0039605D01*
X0069966Y0040203D02*
X0069366Y0040203D01*
X0069366Y0040802D02*
X0069966Y0040802D01*
X0069966Y0041400D02*
X0069366Y0041400D01*
X0069366Y0041999D02*
X0069966Y0041999D01*
X0069966Y0042597D02*
X0076746Y0042597D01*
X0076746Y0041999D02*
X0073566Y0041999D01*
X0073566Y0041400D02*
X0076807Y0041400D01*
X0077055Y0040802D02*
X0073542Y0040802D01*
X0072943Y0040203D02*
X0077302Y0040203D01*
X0077806Y0039605D02*
X0072345Y0039605D01*
X0073566Y0042742D02*
X0069966Y0042742D01*
X0069966Y0046342D01*
X0071282Y0046342D01*
X0073566Y0044057D01*
X0073566Y0042742D01*
X0073566Y0043196D02*
X0076753Y0043196D01*
X0077001Y0043794D02*
X0073566Y0043794D01*
X0073230Y0044393D02*
X0077249Y0044393D01*
X0077676Y0044991D02*
X0072632Y0044991D01*
X0072033Y0045590D02*
X0078274Y0045590D01*
X0079367Y0046188D02*
X0071435Y0046188D01*
X0069966Y0046188D02*
X0069366Y0046188D01*
X0069366Y0045590D02*
X0069966Y0045590D01*
X0069966Y0044991D02*
X0069366Y0044991D01*
X0069366Y0044393D02*
X0069966Y0044393D01*
X0069966Y0043794D02*
X0069366Y0043794D01*
X0069366Y0043196D02*
X0069966Y0043196D01*
X0069366Y0042597D02*
X0063821Y0042597D01*
X0063639Y0043196D02*
X0065766Y0043196D01*
X0065766Y0043794D02*
X0063639Y0043794D01*
X0063639Y0044393D02*
X0066102Y0044393D01*
X0066700Y0044991D02*
X0063639Y0044991D01*
X0063639Y0045590D02*
X0067299Y0045590D01*
X0067897Y0046188D02*
X0063639Y0046188D01*
X0063639Y0046787D02*
X0154039Y0046787D01*
X0154039Y0047385D02*
X0063639Y0047385D01*
X0063639Y0047984D02*
X0154039Y0047984D01*
X0154039Y0056962D02*
X0063639Y0056962D01*
X0063639Y0057560D02*
X0154039Y0057560D01*
X0154039Y0058159D02*
X0063639Y0058159D01*
X0064049Y0058757D02*
X0078837Y0058757D01*
X0078055Y0059356D02*
X0064648Y0059356D01*
X0065938Y0059954D02*
X0077456Y0059954D01*
X0077158Y0060553D02*
X0066536Y0060553D01*
X0066882Y0061151D02*
X0076910Y0061151D01*
X0076746Y0061750D02*
X0067128Y0061750D01*
X0067128Y0062348D02*
X0076746Y0062348D01*
X0076746Y0062947D02*
X0067090Y0062947D01*
X0066842Y0063545D02*
X0076898Y0063545D01*
X0077145Y0064144D02*
X0066440Y0064144D01*
X0065731Y0064742D02*
X0077427Y0064742D01*
X0078523Y0068887D02*
X0080030Y0068263D01*
X0086861Y0068263D01*
X0088368Y0068887D01*
X0089521Y0070041D01*
X0090146Y0071547D01*
X0090146Y0073179D01*
X0089521Y0074685D01*
X0088368Y0075839D01*
X0086861Y0076463D01*
X0080030Y0076463D01*
X0078523Y0075839D01*
X0077370Y0074685D01*
X0076746Y0073179D01*
X0076746Y0071547D01*
X0077370Y0070041D01*
X0078523Y0068887D01*
X0078479Y0068932D02*
X0023639Y0068932D01*
X0023639Y0069530D02*
X0077880Y0069530D01*
X0077333Y0070129D02*
X0023639Y0070129D01*
X0023639Y0070727D02*
X0077085Y0070727D01*
X0076837Y0071326D02*
X0023639Y0071326D01*
X0023639Y0071924D02*
X0076746Y0071924D01*
X0076746Y0072523D02*
X0023639Y0072523D01*
X0023639Y0073121D02*
X0076746Y0073121D01*
X0076970Y0073720D02*
X0023639Y0073720D01*
X0023639Y0074318D02*
X0077218Y0074318D01*
X0077601Y0074917D02*
X0023639Y0074917D01*
X0023639Y0075515D02*
X0078200Y0075515D01*
X0079187Y0076114D02*
X0023639Y0076114D01*
X0023639Y0076712D02*
X0135844Y0076712D01*
X0136442Y0076114D02*
X0117704Y0076114D01*
X0118368Y0075839D02*
X0116861Y0076463D01*
X0110030Y0076463D01*
X0108523Y0075839D01*
X0107370Y0074685D01*
X0106746Y0073179D01*
X0106746Y0071547D01*
X0107370Y0070041D01*
X0108523Y0068887D01*
X0110030Y0068263D01*
X0116861Y0068263D01*
X0118368Y0068887D01*
X0119521Y0070041D01*
X0120146Y0071547D01*
X0120146Y0073179D01*
X0119521Y0074685D01*
X0118368Y0075839D01*
X0118692Y0075515D02*
X0137041Y0075515D01*
X0137639Y0074917D02*
X0119290Y0074917D01*
X0119674Y0074318D02*
X0138238Y0074318D01*
X0138836Y0073720D02*
X0119921Y0073720D01*
X0120146Y0073121D02*
X0139435Y0073121D01*
X0140033Y0072523D02*
X0120146Y0072523D01*
X0120146Y0071924D02*
X0140632Y0071924D01*
X0141230Y0071326D02*
X0120054Y0071326D01*
X0119806Y0070727D02*
X0141829Y0070727D01*
X0142427Y0070129D02*
X0119558Y0070129D01*
X0119011Y0069530D02*
X0143026Y0069530D01*
X0143624Y0068932D02*
X0118413Y0068932D01*
X0117031Y0068333D02*
X0144223Y0068333D01*
X0144821Y0067735D02*
X0023639Y0067735D01*
X0023639Y0068333D02*
X0079860Y0068333D01*
X0087031Y0068333D02*
X0109860Y0068333D01*
X0108479Y0068932D02*
X0088413Y0068932D01*
X0089011Y0069530D02*
X0107880Y0069530D01*
X0107333Y0070129D02*
X0089558Y0070129D01*
X0089806Y0070727D02*
X0107085Y0070727D01*
X0106837Y0071326D02*
X0090054Y0071326D01*
X0090146Y0071924D02*
X0106746Y0071924D01*
X0106746Y0072523D02*
X0090146Y0072523D01*
X0090146Y0073121D02*
X0106746Y0073121D01*
X0106970Y0073720D02*
X0089921Y0073720D01*
X0089674Y0074318D02*
X0107218Y0074318D01*
X0107601Y0074917D02*
X0089290Y0074917D01*
X0088692Y0075515D02*
X0108200Y0075515D01*
X0109187Y0076114D02*
X0087704Y0076114D01*
X0086861Y0078263D02*
X0088368Y0078887D01*
X0089521Y0080041D01*
X0090146Y0081547D01*
X0090146Y0083179D01*
X0089521Y0084685D01*
X0088368Y0085839D01*
X0086861Y0086463D01*
X0080030Y0086463D01*
X0078523Y0085839D01*
X0077370Y0084685D01*
X0076746Y0083179D01*
X0076746Y0081547D01*
X0077370Y0080041D01*
X0078523Y0078887D01*
X0080030Y0078263D01*
X0086861Y0078263D01*
X0087453Y0078508D02*
X0110235Y0078508D01*
X0110462Y0078463D02*
X0113146Y0078463D01*
X0113146Y0082063D01*
X0113746Y0082063D01*
X0113746Y0082663D01*
X0119946Y0082663D01*
X0119946Y0082747D01*
X0119796Y0083501D01*
X0119502Y0084210D01*
X0119075Y0084849D01*
X0118532Y0085392D01*
X0117893Y0085819D01*
X0117183Y0086113D01*
X0116430Y0086263D01*
X0113746Y0086263D01*
X0113746Y0082663D01*
X0113146Y0082663D01*
X0113146Y0086263D01*
X0110462Y0086263D01*
X0109708Y0086113D01*
X0108998Y0085819D01*
X0108360Y0085392D01*
X0107816Y0084849D01*
X0107390Y0084210D01*
X0107096Y0083501D01*
X0106946Y0082747D01*
X0106946Y0082663D01*
X0113146Y0082663D01*
X0113146Y0082063D01*
X0106946Y0082063D01*
X0106946Y0081979D01*
X0107096Y0081225D01*
X0107390Y0080516D01*
X0107816Y0079877D01*
X0108360Y0079334D01*
X0108998Y0078907D01*
X0109708Y0078613D01*
X0110462Y0078463D01*
X0108700Y0079106D02*
X0088587Y0079106D01*
X0089186Y0079705D02*
X0107988Y0079705D01*
X0107531Y0080303D02*
X0089630Y0080303D01*
X0089878Y0080902D02*
X0107229Y0080902D01*
X0107041Y0081501D02*
X0090126Y0081501D01*
X0090146Y0082099D02*
X0113146Y0082099D01*
X0113146Y0081501D02*
X0113746Y0081501D01*
X0113746Y0082063D02*
X0113746Y0078463D01*
X0116430Y0078463D01*
X0117183Y0078613D01*
X0117893Y0078907D01*
X0118532Y0079334D01*
X0119075Y0079877D01*
X0119502Y0080516D01*
X0119796Y0081225D01*
X0119946Y0081979D01*
X0119946Y0082063D01*
X0113746Y0082063D01*
X0113746Y0082099D02*
X0130457Y0082099D01*
X0131055Y0081501D02*
X0119851Y0081501D01*
X0119662Y0080902D02*
X0131654Y0080902D01*
X0132252Y0080303D02*
X0119360Y0080303D01*
X0118903Y0079705D02*
X0132851Y0079705D01*
X0133449Y0079106D02*
X0118192Y0079106D01*
X0116656Y0078508D02*
X0134048Y0078508D01*
X0134647Y0077909D02*
X0072471Y0077909D01*
X0073129Y0078508D02*
X0079439Y0078508D01*
X0078304Y0079106D02*
X0073727Y0079106D01*
X0074156Y0079705D02*
X0077705Y0079705D01*
X0077261Y0080303D02*
X0074403Y0080303D01*
X0074651Y0080902D02*
X0077013Y0080902D01*
X0076765Y0081501D02*
X0074827Y0081501D01*
X0074827Y0082099D02*
X0076746Y0082099D01*
X0076746Y0082698D02*
X0074827Y0082698D01*
X0074827Y0083296D02*
X0076794Y0083296D01*
X0077042Y0083895D02*
X0074620Y0083895D01*
X0074372Y0084493D02*
X0077290Y0084493D01*
X0077776Y0085092D02*
X0074124Y0085092D01*
X0073650Y0085690D02*
X0078375Y0085690D01*
X0079609Y0086289D02*
X0073052Y0086289D01*
X0072285Y0086887D02*
X0125669Y0086887D01*
X0126267Y0086289D02*
X0087282Y0086289D01*
X0088517Y0085690D02*
X0108805Y0085690D01*
X0108059Y0085092D02*
X0089115Y0085092D01*
X0089601Y0084493D02*
X0107578Y0084493D01*
X0107259Y0083895D02*
X0089849Y0083895D01*
X0090097Y0083296D02*
X0107055Y0083296D01*
X0106946Y0082698D02*
X0090146Y0082698D01*
X0087874Y0088683D02*
X0109017Y0088683D01*
X0108129Y0089281D02*
X0088762Y0089281D01*
X0089361Y0089880D02*
X0107531Y0089880D01*
X0107189Y0090478D02*
X0089703Y0090478D01*
X0089951Y0091077D02*
X0106941Y0091077D01*
X0106746Y0091675D02*
X0090146Y0091675D01*
X0090146Y0092274D02*
X0106746Y0092274D01*
X0106746Y0092872D02*
X0090146Y0092872D01*
X0090025Y0093471D02*
X0106867Y0093471D01*
X0107115Y0094069D02*
X0089777Y0094069D01*
X0089529Y0094668D02*
X0107363Y0094668D01*
X0107951Y0095266D02*
X0088941Y0095266D01*
X0088305Y0095865D02*
X0108586Y0095865D01*
X0108595Y0098857D02*
X0087773Y0098857D01*
X0088654Y0099456D02*
X0107955Y0099456D01*
X0107364Y0100054D02*
X0089194Y0100054D01*
X0089559Y0100653D02*
X0107116Y0100653D01*
X0106868Y0101251D02*
X0089801Y0101251D01*
X0089920Y0101850D02*
X0106746Y0101850D01*
X0115918Y0106638D02*
X0072703Y0106638D01*
X0073301Y0106039D02*
X0079530Y0106039D01*
X0078432Y0105441D02*
X0073900Y0105441D01*
X0074227Y0104842D02*
X0077812Y0104842D01*
X0077412Y0104244D02*
X0074475Y0104244D01*
X0074723Y0103645D02*
X0077156Y0103645D01*
X0077005Y0103047D02*
X0074827Y0103047D01*
X0083146Y0101850D02*
X0083746Y0101850D01*
X0083746Y0101251D02*
X0083146Y0101251D01*
X0083146Y0100653D02*
X0083746Y0100653D01*
X0083746Y0100054D02*
X0083146Y0100054D01*
X0083146Y0099456D02*
X0083746Y0099456D01*
X0083746Y0098857D02*
X0083146Y0098857D01*
X0076941Y0091077D02*
X0074467Y0091077D01*
X0074273Y0090478D02*
X0077189Y0090478D01*
X0077531Y0089880D02*
X0073975Y0089880D01*
X0073570Y0089281D02*
X0078129Y0089281D01*
X0079017Y0088683D02*
X0073021Y0088683D01*
X0072248Y0088084D02*
X0124472Y0088084D01*
X0125070Y0087486D02*
X0070840Y0087486D01*
X0068413Y0087486D02*
X0018406Y0087486D01*
X0017808Y0088084D02*
X0067005Y0088084D01*
X0066233Y0088683D02*
X0017209Y0088683D01*
X0016611Y0089281D02*
X0065683Y0089281D01*
X0065279Y0089880D02*
X0016012Y0089880D01*
X0015414Y0090478D02*
X0064981Y0090478D01*
X0064786Y0091077D02*
X0014815Y0091077D01*
X0014217Y0091675D02*
X0064673Y0091675D01*
X0066968Y0086887D02*
X0019005Y0086887D01*
X0019603Y0086289D02*
X0066202Y0086289D01*
X0065603Y0085690D02*
X0020202Y0085690D01*
X0020800Y0085092D02*
X0065130Y0085092D01*
X0064882Y0084493D02*
X0021399Y0084493D01*
X0021997Y0083895D02*
X0064634Y0083895D01*
X0064427Y0083296D02*
X0022596Y0083296D01*
X0023195Y0082698D02*
X0064427Y0082698D01*
X0064427Y0082099D02*
X0023639Y0082099D01*
X0023639Y0081501D02*
X0064427Y0081501D01*
X0064602Y0080902D02*
X0023639Y0080902D01*
X0023639Y0080303D02*
X0064850Y0080303D01*
X0065098Y0079705D02*
X0023639Y0079705D01*
X0023639Y0079106D02*
X0065526Y0079106D01*
X0066125Y0078508D02*
X0023639Y0078508D01*
X0023639Y0077909D02*
X0066783Y0077909D01*
X0068228Y0077311D02*
X0023639Y0077311D01*
X0019039Y0077311D02*
X0018581Y0077311D01*
X0018639Y0076712D02*
X0019039Y0076712D01*
X0019039Y0076114D02*
X0018639Y0076114D01*
X0018639Y0075515D02*
X0019039Y0075515D01*
X0019039Y0074917D02*
X0018639Y0074917D01*
X0018639Y0074318D02*
X0019039Y0074318D01*
X0019039Y0073720D02*
X0018639Y0073720D01*
X0018639Y0073121D02*
X0019039Y0073121D01*
X0019039Y0072523D02*
X0018639Y0072523D01*
X0018639Y0071924D02*
X0019039Y0071924D01*
X0019039Y0071326D02*
X0018639Y0071326D01*
X0018639Y0070727D02*
X0019039Y0070727D01*
X0019039Y0070129D02*
X0018639Y0070129D01*
X0018639Y0069530D02*
X0019039Y0069530D01*
X0019039Y0068932D02*
X0018639Y0068932D01*
X0018639Y0068333D02*
X0019039Y0068333D01*
X0019039Y0067735D02*
X0018639Y0067735D01*
X0018639Y0067136D02*
X0019039Y0067136D01*
X0019039Y0066538D02*
X0018639Y0066538D01*
X0018639Y0065939D02*
X0019039Y0065939D01*
X0019039Y0065341D02*
X0018639Y0065341D01*
X0018639Y0064742D02*
X0019039Y0064742D01*
X0019039Y0064144D02*
X0018639Y0064144D01*
X0018639Y0063545D02*
X0019039Y0063545D01*
X0019039Y0062947D02*
X0018639Y0062947D01*
X0018639Y0062348D02*
X0019039Y0062348D01*
X0019039Y0061750D02*
X0018639Y0061750D01*
X0018639Y0061151D02*
X0019039Y0061151D01*
X0019039Y0060553D02*
X0018639Y0060553D01*
X0018639Y0059954D02*
X0019039Y0059954D01*
X0019039Y0059356D02*
X0018639Y0059356D01*
X0018639Y0058757D02*
X0019039Y0058757D01*
X0019039Y0058159D02*
X0018639Y0058159D01*
X0018639Y0057560D02*
X0019039Y0057560D01*
X0019039Y0056962D02*
X0018639Y0056962D01*
X0018639Y0056363D02*
X0019039Y0056363D01*
X0019039Y0055765D02*
X0018639Y0055765D01*
X0018639Y0055166D02*
X0019221Y0055166D01*
X0018639Y0054568D02*
X0019819Y0054568D01*
X0020418Y0053969D02*
X0018639Y0053969D01*
X0018639Y0053370D02*
X0021016Y0053370D01*
X0021615Y0052772D02*
X0018639Y0052772D01*
X0018639Y0052173D02*
X0022213Y0052173D01*
X0022812Y0051575D02*
X0018639Y0051575D01*
X0018639Y0050976D02*
X0022972Y0050976D01*
X0022750Y0050378D02*
X0018639Y0050378D01*
X0018639Y0049779D02*
X0022750Y0049779D01*
X0022750Y0049181D02*
X0018639Y0049181D01*
X0018639Y0048582D02*
X0022750Y0048582D01*
X0022910Y0047984D02*
X0018639Y0047984D01*
X0018639Y0047385D02*
X0023158Y0047385D01*
X0023406Y0046787D02*
X0018639Y0046787D01*
X0018639Y0046188D02*
X0023814Y0046188D01*
X0024412Y0045590D02*
X0018639Y0045590D01*
X0018639Y0044991D02*
X0025020Y0044991D01*
X0026465Y0044393D02*
X0018639Y0044393D01*
X0018639Y0043794D02*
X0033581Y0043794D01*
X0032982Y0043196D02*
X0018639Y0043196D01*
X0018639Y0042597D02*
X0032384Y0042597D01*
X0031785Y0041999D02*
X0018639Y0041999D01*
X0018639Y0041400D02*
X0031187Y0041400D01*
X0030588Y0040802D02*
X0018639Y0040802D01*
X0018639Y0040203D02*
X0029990Y0040203D01*
X0029391Y0039605D02*
X0018639Y0039605D01*
X0018639Y0039006D02*
X0028793Y0039006D01*
X0028194Y0038408D02*
X0018639Y0038408D01*
X0018639Y0037809D02*
X0027596Y0037809D01*
X0026997Y0037211D02*
X0018639Y0037211D01*
X0018639Y0036612D02*
X0026399Y0036612D01*
X0025800Y0036014D02*
X0018639Y0036014D01*
X0018639Y0035415D02*
X0025202Y0035415D01*
X0024603Y0034817D02*
X0018639Y0034817D01*
X0018639Y0034218D02*
X0024005Y0034218D01*
X0023406Y0033620D02*
X0018639Y0033620D01*
X0018639Y0033021D02*
X0022808Y0033021D01*
X0022209Y0032423D02*
X0018639Y0032423D01*
X0018639Y0031824D02*
X0021611Y0031824D01*
X0021012Y0031226D02*
X0018639Y0031226D01*
X0018639Y0030627D02*
X0020414Y0030627D01*
X0019815Y0030029D02*
X0018639Y0030029D01*
X0018639Y0029430D02*
X0019295Y0029430D01*
X0019295Y0028832D02*
X0018639Y0028832D01*
X0018639Y0028233D02*
X0019295Y0028233D01*
X0019295Y0027634D02*
X0018639Y0027634D01*
X0018639Y0027036D02*
X0019295Y0027036D01*
X0019295Y0026437D02*
X0018639Y0026437D01*
X0018639Y0025839D02*
X0019295Y0025839D01*
X0019295Y0025240D02*
X0018639Y0025240D01*
X0018639Y0024642D02*
X0019295Y0024642D01*
X0019295Y0024043D02*
X0018639Y0024043D01*
X0018639Y0023445D02*
X0019295Y0023445D01*
X0019295Y0022846D02*
X0018639Y0022846D01*
X0018639Y0022248D02*
X0019295Y0022248D01*
X0019295Y0021649D02*
X0018639Y0021649D01*
X0018639Y0021051D02*
X0019295Y0021051D01*
X0019280Y0020452D02*
X0018639Y0020452D01*
X0018639Y0019854D02*
X0018682Y0019854D01*
X0014039Y0019854D02*
X0002839Y0019854D01*
X0002839Y0020452D02*
X0014039Y0020452D01*
X0014039Y0021051D02*
X0002839Y0021051D01*
X0002839Y0021649D02*
X0014039Y0021649D01*
X0014039Y0022248D02*
X0002839Y0022248D01*
X0002839Y0022846D02*
X0014039Y0022846D01*
X0014039Y0023445D02*
X0002839Y0023445D01*
X0002839Y0024043D02*
X0014039Y0024043D01*
X0014039Y0024642D02*
X0002839Y0024642D01*
X0002839Y0025240D02*
X0014039Y0025240D01*
X0014039Y0025839D02*
X0002839Y0025839D01*
X0002839Y0026437D02*
X0014039Y0026437D01*
X0014039Y0027036D02*
X0002839Y0027036D01*
X0002839Y0027634D02*
X0014039Y0027634D01*
X0014039Y0028233D02*
X0002839Y0028233D01*
X0002839Y0028832D02*
X0014039Y0028832D01*
X0014039Y0029430D02*
X0002839Y0029430D01*
X0002839Y0030029D02*
X0014039Y0030029D01*
X0014039Y0030627D02*
X0002839Y0030627D01*
X0002839Y0031226D02*
X0014039Y0031226D01*
X0014039Y0031824D02*
X0002839Y0031824D01*
X0002839Y0032423D02*
X0014039Y0032423D01*
X0014039Y0033021D02*
X0002839Y0033021D01*
X0002839Y0033620D02*
X0014039Y0033620D01*
X0014039Y0034218D02*
X0002839Y0034218D01*
X0002839Y0034817D02*
X0014039Y0034817D01*
X0014039Y0035415D02*
X0002839Y0035415D01*
X0002839Y0036014D02*
X0014039Y0036014D01*
X0014039Y0036612D02*
X0002839Y0036612D01*
X0002839Y0037211D02*
X0014039Y0037211D01*
X0014039Y0037809D02*
X0002839Y0037809D01*
X0002839Y0038408D02*
X0014039Y0038408D01*
X0014039Y0039006D02*
X0002839Y0039006D01*
X0002839Y0039605D02*
X0014039Y0039605D01*
X0014039Y0040203D02*
X0002839Y0040203D01*
X0002839Y0040802D02*
X0014039Y0040802D01*
X0014039Y0041400D02*
X0002839Y0041400D01*
X0002839Y0041999D02*
X0014039Y0041999D01*
X0014039Y0042597D02*
X0002839Y0042597D01*
X0002839Y0043196D02*
X0014039Y0043196D01*
X0014039Y0043794D02*
X0002839Y0043794D01*
X0002839Y0044393D02*
X0014039Y0044393D01*
X0014039Y0044991D02*
X0010298Y0044991D01*
X0010570Y0045130D02*
X0011207Y0045593D01*
X0011763Y0046149D01*
X0012226Y0046786D01*
X0012583Y0047487D01*
X0012826Y0048235D01*
X0012950Y0049013D01*
X0012950Y0049106D01*
X0008250Y0049106D01*
X0008250Y0049706D01*
X0012950Y0049706D01*
X0012950Y0049800D01*
X0012826Y0050577D01*
X0012583Y0051326D01*
X0012226Y0052027D01*
X0011763Y0052664D01*
X0011207Y0053220D01*
X0010570Y0053683D01*
X0009869Y0054040D01*
X0009120Y0054283D01*
X0008343Y0054406D01*
X0008250Y0054406D01*
X0008250Y0049706D01*
X0007650Y0049706D01*
X0007650Y0054406D01*
X0007556Y0054406D01*
X0006779Y0054283D01*
X0006030Y0054040D01*
X0005329Y0053683D01*
X0004692Y0053220D01*
X0004136Y0052664D01*
X0003673Y0052027D01*
X0003316Y0051326D01*
X0003073Y0050577D01*
X0002950Y0049800D01*
X0002950Y0049706D01*
X0007650Y0049706D01*
X0007650Y0049106D01*
X0008250Y0049106D01*
X0008250Y0044406D01*
X0008343Y0044406D01*
X0009120Y0044529D01*
X0009869Y0044773D01*
X0010570Y0045130D01*
X0011203Y0045590D02*
X0014039Y0045590D01*
X0014039Y0046188D02*
X0011792Y0046188D01*
X0012227Y0046787D02*
X0014039Y0046787D01*
X0014039Y0047385D02*
X0012532Y0047385D01*
X0012745Y0047984D02*
X0014039Y0047984D01*
X0014039Y0048582D02*
X0012881Y0048582D01*
X0012950Y0049779D02*
X0014039Y0049779D01*
X0014039Y0049181D02*
X0008250Y0049181D01*
X0008250Y0049779D02*
X0007650Y0049779D01*
X0007650Y0049181D02*
X0002839Y0049181D01*
X0002950Y0049106D02*
X0002950Y0049013D01*
X0003073Y0048235D01*
X0003316Y0047487D01*
X0003673Y0046786D01*
X0004136Y0046149D01*
X0004692Y0045593D01*
X0005329Y0045130D01*
X0006030Y0044773D01*
X0006779Y0044529D01*
X0007556Y0044406D01*
X0007650Y0044406D01*
X0007650Y0049106D01*
X0002950Y0049106D01*
X0003018Y0048582D02*
X0002839Y0048582D01*
X0002839Y0047984D02*
X0003154Y0047984D01*
X0003368Y0047385D02*
X0002839Y0047385D01*
X0002839Y0046787D02*
X0003673Y0046787D01*
X0004107Y0046188D02*
X0002839Y0046188D01*
X0002839Y0045590D02*
X0004696Y0045590D01*
X0005601Y0044991D02*
X0002839Y0044991D01*
X0002839Y0049779D02*
X0002950Y0049779D01*
X0003041Y0050378D02*
X0002839Y0050378D01*
X0002839Y0050976D02*
X0003202Y0050976D01*
X0003443Y0051575D02*
X0002839Y0051575D01*
X0002839Y0052173D02*
X0003780Y0052173D01*
X0004244Y0052772D02*
X0002839Y0052772D01*
X0002839Y0053370D02*
X0004899Y0053370D01*
X0005891Y0053969D02*
X0002839Y0053969D01*
X0002839Y0054568D02*
X0014039Y0054568D01*
X0014039Y0055166D02*
X0002839Y0055166D01*
X0002839Y0055765D02*
X0014039Y0055765D01*
X0014039Y0056363D02*
X0002839Y0056363D01*
X0002839Y0056962D02*
X0014039Y0056962D01*
X0014039Y0057560D02*
X0002839Y0057560D01*
X0002839Y0058159D02*
X0014039Y0058159D01*
X0014039Y0058757D02*
X0002839Y0058757D01*
X0002839Y0059356D02*
X0014039Y0059356D01*
X0014039Y0059954D02*
X0002839Y0059954D01*
X0002839Y0060553D02*
X0014039Y0060553D01*
X0014039Y0061151D02*
X0002839Y0061151D01*
X0002839Y0061750D02*
X0004256Y0061750D01*
X0003272Y0062348D02*
X0002839Y0062348D01*
X0006039Y0062348D02*
X0006639Y0062348D01*
X0006639Y0061750D02*
X0006039Y0061750D01*
X0006039Y0062947D02*
X0006639Y0062947D01*
X0006639Y0063545D02*
X0006039Y0063545D01*
X0006039Y0064144D02*
X0006639Y0064144D01*
X0006639Y0064742D02*
X0006039Y0064742D01*
X0006039Y0065341D02*
X0006639Y0065341D01*
X0006639Y0065939D02*
X0006039Y0065939D01*
X0006639Y0066538D02*
X0014039Y0066538D01*
X0014039Y0067136D02*
X0011269Y0067136D01*
X0011130Y0067735D02*
X0014039Y0067735D01*
X0014039Y0068333D02*
X0010915Y0068333D01*
X0010608Y0068932D02*
X0014039Y0068932D01*
X0014039Y0069530D02*
X0010173Y0069530D01*
X0009576Y0070129D02*
X0014039Y0070129D01*
X0014039Y0070727D02*
X0008664Y0070727D01*
X0007919Y0071326D02*
X0014039Y0071326D01*
X0014039Y0071924D02*
X0009318Y0071924D01*
X0009916Y0072523D02*
X0014039Y0072523D01*
X0014039Y0073121D02*
X0010515Y0073121D01*
X0010899Y0073720D02*
X0014039Y0073720D01*
X0014039Y0074318D02*
X0011147Y0074318D01*
X0011395Y0074917D02*
X0014039Y0074917D01*
X0013871Y0075515D02*
X0011539Y0075515D01*
X0011539Y0076114D02*
X0013273Y0076114D01*
X0012674Y0076712D02*
X0011539Y0076712D01*
X0011539Y0077311D02*
X0012076Y0077311D01*
X0011477Y0077909D02*
X0011301Y0077909D01*
X0014392Y0081501D02*
X0017886Y0081501D01*
X0017288Y0082099D02*
X0013793Y0082099D01*
X0013195Y0082698D02*
X0016689Y0082698D01*
X0016091Y0083296D02*
X0012596Y0083296D01*
X0011997Y0083895D02*
X0015492Y0083895D01*
X0014894Y0084493D02*
X0011399Y0084493D01*
X0011467Y0085092D02*
X0014295Y0085092D01*
X0013697Y0085690D02*
X0011539Y0085690D01*
X0011539Y0086289D02*
X0013098Y0086289D01*
X0012500Y0086887D02*
X0011539Y0086887D01*
X0011477Y0087486D02*
X0011901Y0087486D01*
X0011303Y0088084D02*
X0011229Y0088084D01*
X0014990Y0080902D02*
X0018485Y0080902D01*
X0019039Y0080303D02*
X0015589Y0080303D01*
X0016187Y0079705D02*
X0019039Y0079705D01*
X0019039Y0079106D02*
X0016786Y0079106D01*
X0017384Y0078508D02*
X0019039Y0078508D01*
X0019039Y0077909D02*
X0017983Y0077909D01*
X0023639Y0067136D02*
X0145420Y0067136D01*
X0146018Y0066538D02*
X0023639Y0066538D01*
X0014039Y0065939D02*
X0011339Y0065939D01*
X0011250Y0065341D02*
X0014039Y0065341D01*
X0014039Y0064742D02*
X0011091Y0064742D01*
X0010852Y0064144D02*
X0014039Y0064144D01*
X0014039Y0063545D02*
X0010518Y0063545D01*
X0010057Y0062947D02*
X0014039Y0062947D01*
X0014039Y0062348D02*
X0009407Y0062348D01*
X0008422Y0061750D02*
X0014039Y0061750D01*
X0014039Y0053969D02*
X0010008Y0053969D01*
X0011000Y0053370D02*
X0014039Y0053370D01*
X0014039Y0052772D02*
X0011655Y0052772D01*
X0012119Y0052173D02*
X0014039Y0052173D01*
X0014039Y0051575D02*
X0012456Y0051575D01*
X0012697Y0050976D02*
X0014039Y0050976D01*
X0014039Y0050378D02*
X0012858Y0050378D01*
X0008250Y0050378D02*
X0007650Y0050378D01*
X0007650Y0050976D02*
X0008250Y0050976D01*
X0008250Y0051575D02*
X0007650Y0051575D01*
X0007650Y0052173D02*
X0008250Y0052173D01*
X0008250Y0052772D02*
X0007650Y0052772D01*
X0007650Y0053370D02*
X0008250Y0053370D01*
X0008250Y0053969D02*
X0007650Y0053969D01*
X0007650Y0048582D02*
X0008250Y0048582D01*
X0008250Y0047984D02*
X0007650Y0047984D01*
X0007650Y0047385D02*
X0008250Y0047385D01*
X0008250Y0046787D02*
X0007650Y0046787D01*
X0007650Y0046188D02*
X0008250Y0046188D01*
X0008250Y0045590D02*
X0007650Y0045590D01*
X0007650Y0044991D02*
X0008250Y0044991D01*
X0024529Y0056363D02*
X0039650Y0056363D01*
X0039650Y0055765D02*
X0025128Y0055765D01*
X0025726Y0055166D02*
X0039650Y0055166D01*
X0039650Y0054568D02*
X0029078Y0054568D01*
X0030523Y0053969D02*
X0039650Y0053969D01*
X0039650Y0053370D02*
X0031339Y0053370D01*
X0031938Y0052772D02*
X0039650Y0052772D01*
X0039650Y0052173D02*
X0032432Y0052173D01*
X0032680Y0051575D02*
X0039650Y0051575D01*
X0039650Y0050976D02*
X0032928Y0050976D01*
X0033150Y0050378D02*
X0039650Y0050378D01*
X0039566Y0049779D02*
X0033150Y0049779D01*
X0033150Y0049181D02*
X0038968Y0049181D01*
X0038369Y0048582D02*
X0033150Y0048582D01*
X0032989Y0047984D02*
X0037771Y0047984D01*
X0037172Y0047385D02*
X0032741Y0047385D01*
X0032493Y0046787D02*
X0036574Y0046787D01*
X0035975Y0046188D02*
X0032086Y0046188D01*
X0031487Y0045590D02*
X0035377Y0045590D01*
X0034778Y0044991D02*
X0030879Y0044991D01*
X0029434Y0044393D02*
X0034180Y0044393D01*
X0026822Y0054568D02*
X0026325Y0054568D01*
X0045609Y0034817D02*
X0087739Y0034817D01*
X0087141Y0035415D02*
X0046207Y0035415D01*
X0046806Y0036014D02*
X0086542Y0036014D01*
X0085944Y0036612D02*
X0047404Y0036612D01*
X0048003Y0037211D02*
X0085345Y0037211D01*
X0084747Y0037809D02*
X0048601Y0037809D01*
X0045010Y0034218D02*
X0057915Y0034218D01*
X0057317Y0033620D02*
X0044412Y0033620D01*
X0043813Y0033021D02*
X0056718Y0033021D01*
X0056120Y0032423D02*
X0043215Y0032423D01*
X0042616Y0031824D02*
X0055707Y0031824D01*
X0055707Y0031226D02*
X0042018Y0031226D01*
X0037209Y0021649D02*
X0023895Y0021649D01*
X0023895Y0021051D02*
X0037209Y0021051D01*
X0037209Y0020452D02*
X0023910Y0020452D01*
X0024509Y0019854D02*
X0036812Y0019854D01*
X0036213Y0019255D02*
X0025107Y0019255D01*
X0025695Y0018657D02*
X0035614Y0018657D01*
X0035409Y0018058D02*
X0025695Y0018058D01*
X0025695Y0017460D02*
X0035409Y0017460D01*
X0035409Y0016861D02*
X0025695Y0016861D01*
X0025695Y0016263D02*
X0035409Y0016263D01*
X0035409Y0015664D02*
X0025695Y0015664D01*
X0025490Y0015066D02*
X0035409Y0015066D01*
X0035996Y0014467D02*
X0024891Y0014467D01*
X0024293Y0013869D02*
X0036594Y0013869D01*
X0037193Y0013270D02*
X0023694Y0013270D01*
X0023294Y0011069D02*
X0019897Y0011069D01*
X0017495Y0008668D01*
X0017495Y0005271D01*
X0019897Y0002869D01*
X0023294Y0002869D01*
X0025695Y0005271D01*
X0025695Y0008668D01*
X0023294Y0011069D01*
X0023487Y0010876D02*
X0055507Y0010876D01*
X0055507Y0010278D02*
X0041782Y0010278D01*
X0042381Y0009679D02*
X0055507Y0009679D01*
X0055713Y0009081D02*
X0042979Y0009081D01*
X0043578Y0008482D02*
X0055961Y0008482D01*
X0056320Y0007884D02*
X0043609Y0007884D01*
X0043609Y0007285D02*
X0056918Y0007285D01*
X0057845Y0006687D02*
X0043609Y0006687D01*
X0043609Y0006088D02*
X0175723Y0006088D01*
X0175971Y0005490D02*
X0043609Y0005490D01*
X0043445Y0004891D02*
X0176219Y0004891D01*
X0176467Y0004293D02*
X0042847Y0004293D01*
X0042248Y0003694D02*
X0176945Y0003694D01*
X0177544Y0003096D02*
X0041650Y0003096D01*
X0037368Y0003096D02*
X0023520Y0003096D01*
X0024118Y0003694D02*
X0036769Y0003694D01*
X0036171Y0004293D02*
X0024717Y0004293D01*
X0025315Y0004891D02*
X0035572Y0004891D01*
X0035409Y0005490D02*
X0025695Y0005490D01*
X0025695Y0006088D02*
X0035409Y0006088D01*
X0035409Y0006687D02*
X0025695Y0006687D01*
X0025695Y0007285D02*
X0035409Y0007285D01*
X0035409Y0007884D02*
X0025695Y0007884D01*
X0025695Y0008482D02*
X0035440Y0008482D01*
X0036038Y0009081D02*
X0025282Y0009081D01*
X0024684Y0009679D02*
X0036637Y0009679D01*
X0037235Y0010278D02*
X0024085Y0010278D01*
X0019704Y0010876D02*
X0018768Y0010876D01*
X0019016Y0011475D02*
X0055617Y0011475D01*
X0055865Y0012073D02*
X0019128Y0012073D01*
X0019128Y0012672D02*
X0037791Y0012672D01*
X0041226Y0012672D02*
X0056113Y0012672D01*
X0056685Y0013270D02*
X0041824Y0013270D01*
X0042423Y0013869D02*
X0057283Y0013869D01*
X0058726Y0014467D02*
X0043021Y0014467D01*
X0019496Y0013270D02*
X0018956Y0013270D01*
X0018898Y0013869D02*
X0018708Y0013869D01*
X0019105Y0010278D02*
X0018261Y0010278D01*
X0018507Y0009679D02*
X0017300Y0009679D01*
X0017908Y0009081D02*
X0002839Y0009081D01*
X0002839Y0009679D02*
X0015379Y0009679D01*
X0014417Y0010278D02*
X0002839Y0010278D01*
X0002839Y0010876D02*
X0013910Y0010876D01*
X0013662Y0011475D02*
X0002839Y0011475D01*
X0002839Y0012073D02*
X0013550Y0012073D01*
X0013550Y0012672D02*
X0002839Y0012672D01*
X0002839Y0013270D02*
X0013722Y0013270D01*
X0013970Y0013869D02*
X0002839Y0013869D01*
X0002839Y0014467D02*
X0014039Y0014467D01*
X0014039Y0015066D02*
X0002839Y0015066D01*
X0002839Y0015664D02*
X0014039Y0015664D01*
X0014039Y0016263D02*
X0002839Y0016263D01*
X0002839Y0016861D02*
X0014039Y0016861D01*
X0014039Y0017460D02*
X0002839Y0017460D01*
X0002839Y0018058D02*
X0014039Y0018058D01*
X0014039Y0018657D02*
X0002839Y0018657D01*
X0002839Y0019255D02*
X0014039Y0019255D01*
X0017495Y0008482D02*
X0002839Y0008482D01*
X0002839Y0007884D02*
X0017495Y0007884D01*
X0017495Y0007285D02*
X0002839Y0007285D01*
X0002839Y0006687D02*
X0017495Y0006687D01*
X0017495Y0006088D02*
X0002839Y0006088D01*
X0002839Y0005490D02*
X0017495Y0005490D01*
X0017875Y0004891D02*
X0002839Y0004891D01*
X0002839Y0004293D02*
X0018474Y0004293D01*
X0019072Y0003694D02*
X0002839Y0003694D01*
X0002839Y0003096D02*
X0019671Y0003096D01*
X0062990Y0039006D02*
X0067586Y0039006D01*
X0066988Y0039605D02*
X0063588Y0039605D01*
X0063904Y0040203D02*
X0066389Y0040203D01*
X0065791Y0040802D02*
X0064128Y0040802D01*
X0064128Y0041400D02*
X0065766Y0041400D01*
X0065766Y0041999D02*
X0064069Y0041999D01*
X0063639Y0048582D02*
X0067727Y0048582D01*
X0067968Y0048342D02*
X0065566Y0050743D01*
X0065566Y0054140D01*
X0067968Y0056542D01*
X0071364Y0056542D01*
X0073766Y0054140D01*
X0073766Y0050743D01*
X0071364Y0048342D01*
X0067968Y0048342D01*
X0067129Y0049181D02*
X0063639Y0049181D01*
X0063639Y0049779D02*
X0066530Y0049779D01*
X0065932Y0050378D02*
X0063639Y0050378D01*
X0063639Y0050976D02*
X0065566Y0050976D01*
X0065566Y0051575D02*
X0063639Y0051575D01*
X0063639Y0052173D02*
X0065566Y0052173D01*
X0065566Y0052772D02*
X0063639Y0052772D01*
X0063639Y0053370D02*
X0065566Y0053370D01*
X0065566Y0053969D02*
X0063639Y0053969D01*
X0063639Y0054568D02*
X0065994Y0054568D01*
X0066592Y0055166D02*
X0063639Y0055166D01*
X0063639Y0055765D02*
X0067191Y0055765D01*
X0067789Y0056363D02*
X0063639Y0056363D01*
X0071543Y0056363D02*
X0079789Y0056363D01*
X0080030Y0056463D02*
X0078523Y0055839D01*
X0077370Y0054685D01*
X0076746Y0053179D01*
X0076746Y0051547D01*
X0077370Y0050041D01*
X0078523Y0048887D01*
X0080030Y0048263D01*
X0086861Y0048263D01*
X0088368Y0048887D01*
X0089521Y0050041D01*
X0090146Y0051547D01*
X0090146Y0053179D01*
X0089521Y0054685D01*
X0088368Y0055839D01*
X0086861Y0056463D01*
X0080030Y0056463D01*
X0078449Y0055765D02*
X0072142Y0055765D01*
X0072740Y0055166D02*
X0077850Y0055166D01*
X0077321Y0054568D02*
X0073339Y0054568D01*
X0073766Y0053969D02*
X0077073Y0053969D01*
X0076825Y0053370D02*
X0073766Y0053370D01*
X0073766Y0052772D02*
X0076746Y0052772D01*
X0076746Y0052173D02*
X0073766Y0052173D01*
X0073766Y0051575D02*
X0076746Y0051575D01*
X0076982Y0050976D02*
X0073766Y0050976D01*
X0073401Y0050378D02*
X0077230Y0050378D01*
X0077631Y0049779D02*
X0072802Y0049779D01*
X0072204Y0049181D02*
X0078229Y0049181D01*
X0079259Y0048582D02*
X0071605Y0048582D01*
X0087632Y0048582D02*
X0109259Y0048582D01*
X0108229Y0049181D02*
X0088662Y0049181D01*
X0089260Y0049779D02*
X0107631Y0049779D01*
X0107230Y0050378D02*
X0089661Y0050378D01*
X0089909Y0050976D02*
X0106982Y0050976D01*
X0106746Y0051575D02*
X0090146Y0051575D01*
X0090146Y0052173D02*
X0106746Y0052173D01*
X0106746Y0052772D02*
X0090146Y0052772D01*
X0090066Y0053370D02*
X0106825Y0053370D01*
X0107073Y0053969D02*
X0089818Y0053969D01*
X0089570Y0054568D02*
X0107321Y0054568D01*
X0107850Y0055166D02*
X0089041Y0055166D01*
X0088442Y0055765D02*
X0108449Y0055765D01*
X0109789Y0056363D02*
X0087102Y0056363D01*
X0088054Y0058757D02*
X0108837Y0058757D01*
X0108055Y0059356D02*
X0088837Y0059356D01*
X0089435Y0059954D02*
X0107456Y0059954D01*
X0107158Y0060553D02*
X0089734Y0060553D01*
X0089981Y0061151D02*
X0106910Y0061151D01*
X0106746Y0061750D02*
X0090146Y0061750D01*
X0090146Y0062348D02*
X0106746Y0062348D01*
X0106746Y0062947D02*
X0090146Y0062947D01*
X0089994Y0063545D02*
X0106898Y0063545D01*
X0107145Y0064144D02*
X0089746Y0064144D01*
X0089465Y0064742D02*
X0107427Y0064742D01*
X0108025Y0065341D02*
X0088866Y0065341D01*
X0088126Y0065939D02*
X0108766Y0065939D01*
X0118126Y0065939D02*
X0146617Y0065939D01*
X0147215Y0065341D02*
X0118866Y0065341D01*
X0119465Y0064742D02*
X0147814Y0064742D01*
X0148412Y0064144D02*
X0119746Y0064144D01*
X0119994Y0063545D02*
X0149011Y0063545D01*
X0149609Y0062947D02*
X0120146Y0062947D01*
X0135245Y0077311D02*
X0071026Y0077311D01*
X0053460Y0097660D02*
X0043727Y0097660D01*
X0044325Y0098259D02*
X0052861Y0098259D01*
X0052263Y0098857D02*
X0044924Y0098857D01*
X0045522Y0099456D02*
X0051664Y0099456D01*
X0051376Y0100054D02*
X0045850Y0100054D01*
X0045850Y0100653D02*
X0051376Y0100653D01*
X0051376Y0101850D02*
X0045850Y0101850D01*
X0045850Y0102448D02*
X0051376Y0102448D01*
X0051449Y0103047D02*
X0045817Y0103047D01*
X0045218Y0103645D02*
X0052047Y0103645D01*
X0052646Y0104244D02*
X0044619Y0104244D01*
X0044021Y0104842D02*
X0053244Y0104842D01*
X0042250Y0104842D02*
X0041650Y0104842D01*
X0041650Y0104244D02*
X0042250Y0104244D01*
X0042250Y0103645D02*
X0041650Y0103645D01*
X0041650Y0103047D02*
X0042250Y0103047D01*
X0042250Y0102448D02*
X0041650Y0102448D01*
X0041650Y0101850D02*
X0042250Y0101850D01*
X0042250Y0100054D02*
X0041650Y0100054D01*
X0041650Y0099456D02*
X0042250Y0099456D01*
X0042250Y0098857D02*
X0041650Y0098857D01*
X0041650Y0098259D02*
X0042250Y0098259D01*
X0042250Y0097660D02*
X0041650Y0097660D01*
X0004947Y0141352D02*
X0002839Y0141352D01*
X0002839Y0141950D02*
X0005465Y0141950D01*
X0004020Y0142549D02*
X0002839Y0142549D01*
X0002839Y0143147D02*
X0003182Y0143147D01*
X0003502Y0140753D02*
X0002839Y0140753D01*
X0002839Y0140155D02*
X0002840Y0140155D01*
X0087524Y0046188D02*
X0109367Y0046188D01*
X0108274Y0045590D02*
X0088617Y0045590D01*
X0089216Y0044991D02*
X0107676Y0044991D01*
X0107249Y0044393D02*
X0089643Y0044393D01*
X0089891Y0043794D02*
X0107001Y0043794D01*
X0106753Y0043196D02*
X0090139Y0043196D01*
X0090146Y0042597D02*
X0106746Y0042597D01*
X0106746Y0041999D02*
X0090146Y0041999D01*
X0090085Y0041400D02*
X0106807Y0041400D01*
X0107055Y0040802D02*
X0089837Y0040802D01*
X0089589Y0040203D02*
X0107302Y0040203D01*
X0107806Y0039605D02*
X0089457Y0039605D01*
X0090055Y0039006D02*
X0108404Y0039006D01*
X0077382Y0025240D02*
X0076782Y0025240D01*
X0076782Y0024642D02*
X0077382Y0024642D01*
X0077382Y0024043D02*
X0076782Y0024043D01*
X0076782Y0023445D02*
X0077382Y0023445D01*
X0077382Y0022846D02*
X0076782Y0022846D01*
X0076782Y0022248D02*
X0077382Y0022248D01*
X0077382Y0020452D02*
X0076782Y0020452D01*
X0076782Y0019854D02*
X0077382Y0019854D01*
X0077382Y0019255D02*
X0076782Y0019255D01*
X0076782Y0018657D02*
X0077382Y0018657D01*
X0077382Y0018058D02*
X0076782Y0018058D01*
X0113146Y0078508D02*
X0113746Y0078508D01*
X0113746Y0079106D02*
X0113146Y0079106D01*
X0113146Y0079705D02*
X0113746Y0079705D01*
X0113746Y0080303D02*
X0113146Y0080303D01*
X0113146Y0080902D02*
X0113746Y0080902D01*
X0113746Y0082698D02*
X0113146Y0082698D01*
X0113146Y0083296D02*
X0113746Y0083296D01*
X0113746Y0083895D02*
X0113146Y0083895D01*
X0113146Y0084493D02*
X0113746Y0084493D01*
X0113746Y0085092D02*
X0113146Y0085092D01*
X0113146Y0085690D02*
X0113746Y0085690D01*
X0118086Y0085690D02*
X0126866Y0085690D01*
X0127464Y0085092D02*
X0118832Y0085092D01*
X0119313Y0084493D02*
X0128063Y0084493D01*
X0128661Y0083895D02*
X0119633Y0083895D01*
X0119836Y0083296D02*
X0129260Y0083296D01*
X0129858Y0082698D02*
X0119946Y0082698D01*
X0117874Y0088683D02*
X0123873Y0088683D01*
X0123275Y0089281D02*
X0118762Y0089281D01*
X0119361Y0089880D02*
X0122676Y0089880D01*
X0122078Y0090478D02*
X0119703Y0090478D01*
X0119951Y0091077D02*
X0121479Y0091077D01*
X0120881Y0091675D02*
X0120146Y0091675D01*
X0120146Y0092274D02*
X0120282Y0092274D01*
X0146976Y0108434D02*
X0147576Y0108434D01*
X0147576Y0109032D02*
X0146976Y0109032D01*
X0146976Y0109631D02*
X0147576Y0109631D01*
X0147576Y0110229D02*
X0146976Y0110229D01*
X0146976Y0110828D02*
X0147576Y0110828D01*
X0147576Y0111426D02*
X0146976Y0111426D01*
X0149083Y0108434D02*
X0189095Y0108434D01*
X0189343Y0109032D02*
X0149681Y0109032D01*
X0150280Y0109631D02*
X0189816Y0109631D01*
X0190415Y0110229D02*
X0150878Y0110229D01*
X0151176Y0110828D02*
X0191182Y0110828D01*
X0192018Y0111426D02*
X0151176Y0111426D01*
X0150549Y0094668D02*
X0188887Y0094668D01*
X0189135Y0094069D02*
X0150916Y0094069D01*
X0151164Y0093471D02*
X0189383Y0093471D01*
X0189913Y0092872D02*
X0151376Y0092872D01*
X0151376Y0092274D02*
X0190512Y0092274D01*
X0191416Y0091675D02*
X0151376Y0091675D01*
X0151273Y0091077D02*
X0191783Y0091077D01*
X0190664Y0090478D02*
X0151025Y0090478D01*
X0150777Y0089880D02*
X0190065Y0089880D01*
X0189467Y0089281D02*
X0150213Y0089281D01*
X0149615Y0088683D02*
X0189198Y0088683D01*
X0188950Y0088084D02*
X0148192Y0088084D01*
X0167910Y0061151D02*
X0196690Y0061151D01*
X0196690Y0060553D02*
X0168509Y0060553D01*
X0169107Y0059954D02*
X0196690Y0059954D01*
X0196690Y0059356D02*
X0169706Y0059356D01*
X0170304Y0058757D02*
X0196690Y0058757D01*
X0196690Y0058159D02*
X0170903Y0058159D01*
X0171501Y0057560D02*
X0196690Y0057560D01*
X0196690Y0056962D02*
X0172100Y0056962D01*
X0172698Y0056363D02*
X0196690Y0056363D01*
X0196690Y0055765D02*
X0173297Y0055765D01*
X0173500Y0055166D02*
X0196690Y0055166D01*
X0196690Y0054568D02*
X0173500Y0054568D01*
X0173500Y0053969D02*
X0196690Y0053969D01*
X0196690Y0053370D02*
X0173500Y0053370D01*
X0173500Y0052772D02*
X0196690Y0052772D01*
X0196690Y0052173D02*
X0173500Y0052173D01*
X0173500Y0051575D02*
X0196690Y0051575D01*
X0196690Y0050976D02*
X0173500Y0050976D01*
X0173500Y0050378D02*
X0196690Y0050378D01*
X0196690Y0049779D02*
X0173500Y0049779D01*
X0173500Y0049181D02*
X0196690Y0049181D01*
X0196690Y0048582D02*
X0173500Y0048582D01*
X0173500Y0047984D02*
X0196690Y0047984D01*
X0196690Y0047385D02*
X0173500Y0047385D01*
X0173500Y0046787D02*
X0196690Y0046787D01*
X0196690Y0046188D02*
X0173500Y0046188D01*
X0173500Y0045590D02*
X0196690Y0045590D01*
X0196690Y0044991D02*
X0173500Y0044991D01*
X0173500Y0044393D02*
X0196690Y0044393D01*
X0196690Y0043794D02*
X0184407Y0043794D01*
X0183994Y0043965D02*
X0181165Y0043965D01*
X0178552Y0042883D01*
X0176552Y0040883D01*
X0175469Y0038269D01*
X0175469Y0035441D01*
X0176552Y0032827D01*
X0178552Y0030827D01*
X0181165Y0029745D01*
X0183994Y0029745D01*
X0186607Y0030827D01*
X0188607Y0032827D01*
X0189690Y0035441D01*
X0189690Y0038269D01*
X0188607Y0040883D01*
X0186607Y0042883D01*
X0183994Y0043965D01*
X0185852Y0043196D02*
X0196690Y0043196D01*
X0196690Y0042597D02*
X0186893Y0042597D01*
X0187491Y0041999D02*
X0196690Y0041999D01*
X0196690Y0041400D02*
X0188090Y0041400D01*
X0188641Y0040802D02*
X0196690Y0040802D01*
X0196690Y0040203D02*
X0188889Y0040203D01*
X0189137Y0039605D02*
X0196690Y0039605D01*
X0196690Y0039006D02*
X0189385Y0039006D01*
X0189632Y0038408D02*
X0196690Y0038408D01*
X0196690Y0037809D02*
X0189690Y0037809D01*
X0189690Y0037211D02*
X0196690Y0037211D01*
X0196690Y0036612D02*
X0189690Y0036612D01*
X0189690Y0036014D02*
X0196690Y0036014D01*
X0196690Y0035415D02*
X0189679Y0035415D01*
X0189431Y0034817D02*
X0196690Y0034817D01*
X0196690Y0034218D02*
X0189183Y0034218D01*
X0188935Y0033620D02*
X0196690Y0033620D01*
X0196690Y0033021D02*
X0188687Y0033021D01*
X0188202Y0032423D02*
X0196690Y0032423D01*
X0196690Y0031824D02*
X0187604Y0031824D01*
X0187005Y0031226D02*
X0196690Y0031226D01*
X0196690Y0030627D02*
X0186124Y0030627D01*
X0184679Y0030029D02*
X0196690Y0030029D01*
X0196690Y0029430D02*
X0173500Y0029430D01*
X0173500Y0028832D02*
X0196690Y0028832D01*
X0196690Y0028233D02*
X0173500Y0028233D01*
X0173500Y0027634D02*
X0196690Y0027634D01*
X0196690Y0027036D02*
X0173500Y0027036D01*
X0173500Y0026437D02*
X0196690Y0026437D01*
X0196690Y0025839D02*
X0173500Y0025839D01*
X0173500Y0025240D02*
X0196690Y0025240D01*
X0196690Y0024642D02*
X0173500Y0024642D01*
X0173500Y0024043D02*
X0196690Y0024043D01*
X0196690Y0023445D02*
X0173500Y0023445D01*
X0173311Y0022846D02*
X0196690Y0022846D01*
X0196690Y0022248D02*
X0172712Y0022248D01*
X0172114Y0021649D02*
X0196690Y0021649D01*
X0196690Y0021051D02*
X0171515Y0021051D01*
X0171173Y0020452D02*
X0196690Y0020452D01*
X0196690Y0019854D02*
X0171300Y0019854D01*
X0171300Y0019255D02*
X0196690Y0019255D01*
X0196690Y0018657D02*
X0171300Y0018657D01*
X0171107Y0018058D02*
X0196690Y0018058D01*
X0196690Y0017460D02*
X0170859Y0017460D01*
X0170514Y0016861D02*
X0196690Y0016861D01*
X0196690Y0016263D02*
X0169915Y0016263D01*
X0169010Y0015664D02*
X0196690Y0015664D01*
X0196690Y0015066D02*
X0184379Y0015066D01*
X0185824Y0014467D02*
X0196690Y0014467D01*
X0196690Y0013869D02*
X0186881Y0013869D01*
X0187480Y0013270D02*
X0196690Y0013270D01*
X0196690Y0012672D02*
X0188078Y0012672D01*
X0188636Y0012073D02*
X0196690Y0012073D01*
X0196690Y0011475D02*
X0188884Y0011475D01*
X0189132Y0010876D02*
X0196690Y0010876D01*
X0196690Y0010278D02*
X0189380Y0010278D01*
X0189628Y0009679D02*
X0196690Y0009679D01*
X0196690Y0009081D02*
X0189690Y0009081D01*
X0189690Y0008482D02*
X0196690Y0008482D01*
X0196690Y0007884D02*
X0189690Y0007884D01*
X0189690Y0007285D02*
X0196690Y0007285D01*
X0196690Y0006687D02*
X0189684Y0006687D01*
X0189436Y0006088D02*
X0196690Y0006088D01*
X0196690Y0005490D02*
X0189188Y0005490D01*
X0188940Y0004891D02*
X0196690Y0004891D01*
X0196690Y0004293D02*
X0188692Y0004293D01*
X0188214Y0003694D02*
X0196690Y0003694D01*
X0196690Y0003096D02*
X0187615Y0003096D01*
X0177679Y0013270D02*
X0165348Y0013270D01*
X0165946Y0013869D02*
X0178278Y0013869D01*
X0179335Y0014467D02*
X0166199Y0014467D01*
X0166447Y0015066D02*
X0180780Y0015066D01*
X0177081Y0012672D02*
X0164665Y0012672D01*
X0173500Y0030029D02*
X0180480Y0030029D01*
X0179035Y0030627D02*
X0173500Y0030627D01*
X0173500Y0031226D02*
X0178154Y0031226D01*
X0177555Y0031824D02*
X0173500Y0031824D01*
X0173500Y0032423D02*
X0176957Y0032423D01*
X0176472Y0033021D02*
X0173500Y0033021D01*
X0173500Y0033620D02*
X0176224Y0033620D01*
X0175976Y0034218D02*
X0173500Y0034218D01*
X0173500Y0034817D02*
X0175728Y0034817D01*
X0175480Y0035415D02*
X0173500Y0035415D01*
X0173500Y0036014D02*
X0175469Y0036014D01*
X0175469Y0036612D02*
X0173500Y0036612D01*
X0173500Y0037211D02*
X0175469Y0037211D01*
X0175469Y0037809D02*
X0173500Y0037809D01*
X0173500Y0038408D02*
X0175527Y0038408D01*
X0175774Y0039006D02*
X0173500Y0039006D01*
X0173500Y0039605D02*
X0176022Y0039605D01*
X0176270Y0040203D02*
X0173500Y0040203D01*
X0173500Y0040802D02*
X0176518Y0040802D01*
X0177069Y0041400D02*
X0173500Y0041400D01*
X0173500Y0041999D02*
X0177668Y0041999D01*
X0178266Y0042597D02*
X0173500Y0042597D01*
X0173500Y0043196D02*
X0179307Y0043196D01*
X0180752Y0043794D02*
X0173500Y0043794D01*
X0195922Y0061750D02*
X0196690Y0061750D01*
D19*
X0156339Y0038800D03*
X0064339Y0062300D03*
X0061339Y0041300D03*
X0016339Y0012300D03*
X0061339Y0171300D03*
X0071339Y0181300D03*
D20*
X0061339Y0171300D01*
X0059902Y0162363D02*
X0033839Y0136300D01*
X0006339Y0136300D01*
X0006339Y0126300D02*
X0036339Y0126300D01*
X0062402Y0152363D01*
X0083446Y0152363D01*
X0083446Y0162363D02*
X0059902Y0162363D01*
X0113446Y0112363D02*
X0171200Y0054609D01*
X0171200Y0023988D01*
X0167225Y0020013D01*
X0167225Y0019335D01*
X0167225Y0025635D02*
X0167225Y0030914D01*
X0164339Y0033800D01*
X0092009Y0033800D01*
X0083446Y0042363D01*
X0064339Y0062300D02*
X0061339Y0059300D01*
X0061339Y0041300D01*
X0055276Y0047737D02*
X0039509Y0031969D01*
X0039509Y0016753D01*
X0021595Y0016969D02*
X0021595Y0028556D01*
X0041950Y0048910D01*
X0041950Y0061398D01*
X0055276Y0061359D02*
X0055276Y0047737D01*
X0027950Y0049406D02*
X0027950Y0049690D01*
X0021339Y0056300D01*
X0021339Y0081300D01*
X0006339Y0096300D01*
X0006339Y0086300D02*
X0016339Y0076300D01*
X0016339Y0012300D01*
X0113446Y0102363D02*
X0156339Y0059469D01*
X0156339Y0038800D01*
M02*
