%
M48
M72
T01C0.01378
T02C0.03150
T03C0.03200
T04C0.03937
T05C0.04000
T06C0.07480
%
T01
X16339Y12300
X61339Y41300
X64339Y62300
X156339Y38800
X61339Y171300
X71339Y181300
T02
X162501Y28784
X167225Y25635
X162501Y22485
X167225Y19335
X162501Y16186
X147225Y11182
X139351Y11182
X131477Y11182
T03
X21595Y6969
X21595Y16969
X39509Y16753
X39509Y6753
X59607Y10394
X77082Y11365
X77082Y21365
X93918Y21398
X101418Y16398
X93918Y11398
X113426Y10867
X113426Y20867
X113446Y42363
X113446Y52363
X113446Y62363
X113446Y72363
X113446Y82363
X113446Y92363
X113446Y102363
X113446Y112363
X113446Y122363
X113446Y132363
X113446Y142363
X113446Y152363
X113446Y162363
X113446Y172363
X129863Y172422
X129863Y162422
X91930Y192068
X83446Y172363
X83446Y162363
X83446Y152363
X83446Y142363
X83446Y132363
X83446Y122363
X83446Y112363
X83446Y102363
X83446Y92363
X83446Y82363
X83446Y72363
X83446Y62363
X83446Y52363
X83446Y42363
X69666Y42442
X69666Y52442
X55276Y61359
X41950Y61398
X29513Y61379
X59607Y30394
X55276Y101359
X41950Y101398
X29513Y101379
X51930Y192068
X147276Y112143
X147276Y92143
T04
X123603Y11182
X155099Y11182
T05
X7950Y49406
X6339Y66300
X6339Y76300
X6339Y86300
X6339Y96300
X6339Y106300
X6339Y116300
X6339Y126300
X6339Y136300
X6556Y147127
X6556Y157127
X6556Y167127
X6556Y177127
X6556Y187127
X22422Y187107
X42422Y187107
X69627Y102360
X69627Y92360
X69627Y82360
X27950Y49406
X193839Y66300
X193839Y76300
X193839Y86300
X193839Y96300
X193839Y106300
X193839Y116300
X193839Y126300
X193839Y136300
T06
X182580Y36855
X182580Y8115
M30
